<mxfile>
    <diagram id="Jw-fL3lY5UjVhEPAVzbY" name="Page-1">
        <mxGraphModel dx="2141" dy="-2046" grid="1" gridSize="10" guides="1" tooltips="1" connect="1" arrows="1" fold="1" page="1" pageScale="1" pageWidth="827" pageHeight="1169" math="0" shadow="0">
            <root>
                <mxCell id="0"/>
                <mxCell id="1" parent="0"/>
                <mxCell id="176" value="" style="rounded=1;whiteSpace=wrap;html=1;strokeColor=#000000;strokeWidth=5;fillColor=none;" vertex="1" parent="1">
                    <mxGeometry x="-179.06" y="3080" width="639.06" height="270" as="geometry"/>
                </mxCell>
                <mxCell id="180" value="" style="rounded=1;whiteSpace=wrap;html=1;fillColor=none;" vertex="1" parent="1">
                    <mxGeometry x="1140.8400000000001" y="3350" width="431" height="244" as="geometry"/>
                </mxCell>
                <mxCell id="197" value="" style="rounded=1;whiteSpace=wrap;html=1;fillColor=none;strokeWidth=3;strokeColor=#9999FF;" vertex="1" parent="1">
                    <mxGeometry x="-163" y="3154.83" width="120" height="140" as="geometry"/>
                </mxCell>
                <mxCell id="4" value="" style="rounded=1;whiteSpace=wrap;html=1;strokeColor=#3CB2B6;fillColor=#DCE7EF;" vertex="1" parent="1">
                    <mxGeometry x="46" y="3180.83" width="177.31" height="100" as="geometry"/>
                </mxCell>
                <mxCell id="5" value="" style="whiteSpace=wrap;html=1;strokeColor=#3CB2B6;fillColor=#dce7ef;rotation=0;rounded=1;arcSize=3;" vertex="1" parent="1">
                    <mxGeometry x="707.8" y="3103" width="330" height="270" as="geometry"/>
                </mxCell>
                <mxCell id="6" value="" style="rounded=1;whiteSpace=wrap;html=1;fillColor=#FFFFFF;strokeColor=none;arcSize=9;" vertex="1" parent="1">
                    <mxGeometry x="745.5999999999999" y="3129.59" width="259.6" height="90" as="geometry"/>
                </mxCell>
                <mxCell id="7" value="" style="ellipse;whiteSpace=wrap;html=1;aspect=fixed;fillColor=#64cee3;strokeColor=#3CB2B6;strokeWidth=2;" vertex="1" parent="1">
                    <mxGeometry x="872.1999999999998" y="3144.8" width="59.59" height="59.59" as="geometry"/>
                </mxCell>
                <mxCell id="8" value="" style="rounded=1;whiteSpace=wrap;html=1;fillColor=#FFFFFF;strokeColor=none;arcSize=9;" vertex="1" parent="1">
                    <mxGeometry x="745.5999999999999" y="3250" width="259.6" height="90" as="geometry"/>
                </mxCell>
                <mxCell id="9" value="" style="shape=flexArrow;endArrow=classic;html=1;strokeColor=#FFFFFF;fillColor=#cacacb;" edge="1" parent="1">
                    <mxGeometry width="50" height="50" relative="1" as="geometry">
                        <mxPoint x="642" y="3207" as="sourcePoint"/>
                        <mxPoint x="744" y="3207" as="targetPoint"/>
                    </mxGeometry>
                </mxCell>
                <mxCell id="10" value="" style="endArrow=classic;html=1;strokeWidth=3;strokeColor=#006682;" edge="1" parent="1">
                    <mxGeometry width="50" height="50" relative="1" as="geometry">
                        <mxPoint x="918.8000000000006" y="3180" as="sourcePoint"/>
                        <mxPoint x="888.8000000000006" y="3180" as="targetPoint"/>
                    </mxGeometry>
                </mxCell>
                <mxCell id="11" value="" style="endArrow=classic;html=1;strokeWidth=3;strokeColor=#006682;" edge="1" parent="1">
                    <mxGeometry width="50" height="50" relative="1" as="geometry">
                        <mxPoint x="888.8000000000006" y="3170" as="sourcePoint"/>
                        <mxPoint x="918.8000000000006" y="3170" as="targetPoint"/>
                    </mxGeometry>
                </mxCell>
                <mxCell id="12" value="" style="rounded=1;whiteSpace=wrap;html=1;strokeWidth=2;arcSize=15;strokeColor=#808080;fillColor=#66d5eb;" vertex="1" parent="1">
                    <mxGeometry x="827.8" y="3260" width="64" height="70" as="geometry"/>
                </mxCell>
                <mxCell id="13" value="" style="rounded=0;whiteSpace=wrap;html=1;strokeWidth=2;fillColor=#FFFFFF;strokeColor=none;" vertex="1" parent="1">
                    <mxGeometry x="834.8" y="3268" width="50" height="10" as="geometry"/>
                </mxCell>
                <mxCell id="14" value="" style="rounded=0;whiteSpace=wrap;html=1;strokeWidth=2;fillColor=#FFFFFF;strokeColor=none;" vertex="1" parent="1">
                    <mxGeometry x="834.8" y="3283" width="50" height="10" as="geometry"/>
                </mxCell>
                <mxCell id="15" value="" style="rounded=0;whiteSpace=wrap;html=1;strokeWidth=2;fillColor=#FFFFFF;strokeColor=none;" vertex="1" parent="1">
                    <mxGeometry x="834.8" y="3298" width="50" height="10" as="geometry"/>
                </mxCell>
                <mxCell id="16" value="" style="rounded=0;whiteSpace=wrap;html=1;strokeWidth=2;strokeColor=none;fillColor=#FFB500;" vertex="1" parent="1">
                    <mxGeometry x="834.8" y="3313" width="50" height="10" as="geometry"/>
                </mxCell>
                <mxCell id="17" value="" style="rounded=1;whiteSpace=wrap;html=1;strokeWidth=2;arcSize=14;strokeColor=#808080;fillColor=#66d5eb;" vertex="1" parent="1">
                    <mxGeometry x="911.8" y="3260" width="64" height="70" as="geometry"/>
                </mxCell>
                <mxCell id="18" value="" style="rounded=0;whiteSpace=wrap;html=1;strokeWidth=2;fillColor=#FFFFFF;strokeColor=none;" vertex="1" parent="1">
                    <mxGeometry x="918.8" y="3268" width="50" height="10" as="geometry"/>
                </mxCell>
                <mxCell id="19" value="" style="rounded=0;whiteSpace=wrap;html=1;strokeWidth=2;fillColor=#FFFFFF;strokeColor=none;" vertex="1" parent="1">
                    <mxGeometry x="918.8" y="3283" width="50" height="10" as="geometry"/>
                </mxCell>
                <mxCell id="20" value="" style="rounded=0;whiteSpace=wrap;html=1;strokeWidth=2;fillColor=#FFFFFF;strokeColor=none;" vertex="1" parent="1">
                    <mxGeometry x="918.8" y="3298" width="50" height="10" as="geometry"/>
                </mxCell>
                <mxCell id="21" value="" style="rounded=0;whiteSpace=wrap;html=1;strokeWidth=2;fillColor=#FFFFFF;strokeColor=none;" vertex="1" parent="1">
                    <mxGeometry x="918.8" y="3313" width="50" height="10" as="geometry"/>
                </mxCell>
                <mxCell id="22" value="" style="shape=flexArrow;endArrow=classic;html=1;strokeColor=#FFFFFF;fillColor=#cacacb;" edge="1" parent="1">
                    <mxGeometry width="50" height="50" relative="1" as="geometry">
                        <mxPoint x="856.8000000000006" y="3335" as="sourcePoint"/>
                        <mxPoint x="856.8399999999999" y="3423" as="targetPoint"/>
                    </mxGeometry>
                </mxCell>
                <mxCell id="23" value="" style="shape=flexArrow;endArrow=classic;html=1;strokeColor=#FFFFFF;fillColor=#cacacb;" edge="1" parent="1">
                    <mxGeometry width="50" height="50" relative="1" as="geometry">
                        <mxPoint x="885.8000000000006" y="3206" as="sourcePoint"/>
                        <mxPoint x="855.8000000000006" y="3256" as="targetPoint"/>
                    </mxGeometry>
                </mxCell>
                <mxCell id="24" value="" style="shape=flexArrow;endArrow=classic;html=1;strokeColor=#FFFFFF;fillColor=#cacacb;exitX=0.683;exitY=0.831;exitDx=0;exitDy=0;exitPerimeter=0;" edge="1" parent="1">
                    <mxGeometry width="50" height="50" relative="1" as="geometry">
                        <mxPoint x="917.9068000000002" y="3207.380000000001" as="sourcePoint"/>
                        <mxPoint x="945.8000000000006" y="3256.999999999999" as="targetPoint"/>
                    </mxGeometry>
                </mxCell>
                <mxCell id="25" value="&lt;h6&gt;&lt;font color=&quot;#808080&quot;&gt;EXCHANGE&lt;/font&gt;&lt;/h6&gt;" style="text;html=1;strokeColor=none;fillColor=none;align=center;verticalAlign=middle;whiteSpace=wrap;rounded=0;opacity=50;" vertex="1" parent="1">
                    <mxGeometry x="743.8" y="3136" width="59" height="10" as="geometry"/>
                </mxCell>
                <mxCell id="26" value="&lt;h6&gt;&lt;font color=&quot;#808080&quot;&gt;QUEUES&lt;/font&gt;&lt;/h6&gt;" style="text;html=1;strokeColor=none;fillColor=none;align=center;verticalAlign=middle;whiteSpace=wrap;rounded=0;opacity=50;" vertex="1" parent="1">
                    <mxGeometry x="744.8" y="3258" width="43" height="10" as="geometry"/>
                </mxCell>
                <mxCell id="27" value="&lt;h6&gt;&lt;font color=&quot;#808080&quot;&gt;Binding&lt;/font&gt;&lt;/h6&gt;" style="text;html=1;strokeColor=none;fillColor=none;align=center;verticalAlign=middle;whiteSpace=wrap;rounded=0;opacity=50;" vertex="1" parent="1">
                    <mxGeometry x="882.8" y="3219.59" width="40" height="20" as="geometry"/>
                </mxCell>
                <mxCell id="28" value="" style="html=1;dashed=0;whitespace=wrap;fillColor=#2875E2;strokeColor=#ffffff;points=[[0.005,0.63,0],[0.1,0.2,0],[0.9,0.2,0],[0.5,0,0],[0.995,0.63,0],[0.72,0.99,0],[0.5,1,0],[0.28,0.99,0]];shape=mxgraph.kubernetes.icon;prIcon=node" vertex="1" parent="1">
                    <mxGeometry x="58.870000000000005" y="3200.83" width="50" height="48" as="geometry"/>
                </mxCell>
                <mxCell id="29" value="" style="html=1;verticalLabelPosition=bottom;align=center;labelBackgroundColor=#ffffff;verticalAlign=top;strokeWidth=1;shadow=0;dashed=0;shape=mxgraph.ios7.icons.mail;rounded=1;fillColor=#FFD47B;strokeColor=#808080;" vertex="1" parent="1">
                    <mxGeometry x="600" y="3199.75" width="30" height="16.5" as="geometry"/>
                </mxCell>
                <mxCell id="31" value="" style="group" vertex="1" connectable="0" parent="1">
                    <mxGeometry x="717.8" y="3350" width="61.76" height="15" as="geometry"/>
                </mxCell>
                <mxCell id="32" value="" style="shape=image;verticalLabelPosition=bottom;labelBackgroundColor=#ffffff;verticalAlign=top;aspect=fixed;imageAspect=0;image=https://cdn.iconscout.com/icon/free/png-256/rabbitmq-282296.png;" vertex="1" parent="31">
                    <mxGeometry x="5.606465997770346" y="3" width="12.90969899665552" height="12.90969899665552" as="geometry"/>
                </mxCell>
                <mxCell id="33" value="&lt;font color=&quot;#333333&quot; style=&quot;font-size: 9px&quot;&gt;&lt;b&gt;RabbitMQ&lt;/b&gt;&lt;/font&gt;" style="text;html=1;strokeColor=none;fillColor=none;align=center;verticalAlign=middle;whiteSpace=wrap;rounded=0;" vertex="1" parent="31">
                    <mxGeometry x="18.727670011148266" y="2.3600000000001273" width="43.03232998885173" height="14.29" as="geometry"/>
                </mxCell>
                <mxCell id="34" value="&lt;h6&gt;BROKER&lt;/h6&gt;" style="text;html=1;strokeColor=none;fillColor=none;align=center;verticalAlign=middle;whiteSpace=wrap;rounded=0;opacity=50;" vertex="1" parent="1">
                    <mxGeometry x="715.8" y="3107.59" width="40" height="10" as="geometry"/>
                </mxCell>
                <mxCell id="35" value="&lt;div style=&quot;text-align: center&quot;&gt;&lt;span style=&quot;font-size: 8.04px&quot;&gt;&lt;font face=&quot;helvetica&quot;&gt;&lt;b&gt;PRODUCER&lt;/b&gt;&lt;/font&gt;&lt;/span&gt;&lt;/div&gt;" style="text;whiteSpace=wrap;html=1;" vertex="1" parent="1">
                    <mxGeometry x="707.8" y="3070" width="69" height="20" as="geometry"/>
                </mxCell>
                <mxCell id="36" value="&lt;div style=&quot;text-align: center&quot;&gt;&lt;span style=&quot;font-size: 8.04px&quot;&gt;&lt;font face=&quot;helvetica&quot;&gt;&lt;b&gt;CONSUMER&lt;/b&gt;&lt;/font&gt;&lt;/span&gt;&lt;/div&gt;" style="text;whiteSpace=wrap;html=1;" vertex="1" parent="1">
                    <mxGeometry x="707.8" y="3379" width="69" height="20" as="geometry"/>
                </mxCell>
                <mxCell id="37" value="" style="group" vertex="1" connectable="0" parent="1">
                    <mxGeometry x="970.8" y="3076" width="34.76" height="26.41" as="geometry"/>
                </mxCell>
                <mxCell id="38" value="" style="ellipse;whiteSpace=wrap;html=1;aspect=fixed;rounded=1;strokeWidth=1;fillColor=#E6E6E6;strokeColor=#4D4D4D;" vertex="1" parent="37">
                    <mxGeometry x="8.66720869239412" y="4.492825443787047" width="17.417837771203178" height="17.417837771203178" as="geometry"/>
                </mxCell>
                <mxCell id="39" value="1" style="text;html=1;strokeColor=none;fillColor=none;align=center;verticalAlign=middle;whiteSpace=wrap;rounded=0;" vertex="1" parent="37">
                    <mxGeometry width="34.76" height="26.410000000000036" as="geometry"/>
                </mxCell>
                <mxCell id="40" value="" style="group" vertex="1" connectable="0" parent="1">
                    <mxGeometry x="970.8" y="3161" width="34.76" height="26.41" as="geometry"/>
                </mxCell>
                <mxCell id="41" value="" style="ellipse;whiteSpace=wrap;html=1;aspect=fixed;rounded=1;strokeWidth=1;fillColor=#E6E6E6;strokeColor=#4D4D4D;" vertex="1" parent="40">
                    <mxGeometry x="8.66720869239412" y="4.492825443787047" width="17.417837771203178" height="17.417837771203178" as="geometry"/>
                </mxCell>
                <mxCell id="42" value="2" style="text;html=1;strokeColor=none;fillColor=none;align=center;verticalAlign=middle;whiteSpace=wrap;rounded=0;" vertex="1" parent="40">
                    <mxGeometry width="34.76" height="26.410000000000036" as="geometry"/>
                </mxCell>
                <mxCell id="43" value="" style="group" vertex="1" connectable="0" parent="1">
                    <mxGeometry x="970.8" y="3222" width="34.76" height="26.41" as="geometry"/>
                </mxCell>
                <mxCell id="44" value="" style="ellipse;whiteSpace=wrap;html=1;aspect=fixed;rounded=1;strokeWidth=1;fillColor=#E6E6E6;strokeColor=#4D4D4D;" vertex="1" parent="43">
                    <mxGeometry x="8.66720869239412" y="4.492825443787047" width="17.417837771203178" height="17.417837771203178" as="geometry"/>
                </mxCell>
                <mxCell id="45" value="3" style="text;html=1;strokeColor=none;fillColor=none;align=center;verticalAlign=middle;whiteSpace=wrap;rounded=0;" vertex="1" parent="43">
                    <mxGeometry width="34.76" height="26.410000000000036" as="geometry"/>
                </mxCell>
                <mxCell id="46" value="" style="group" vertex="1" connectable="0" parent="1">
                    <mxGeometry x="970.8" y="3291" width="34.76" height="26.41" as="geometry"/>
                </mxCell>
                <mxCell id="47" value="" style="ellipse;whiteSpace=wrap;html=1;aspect=fixed;rounded=1;strokeWidth=1;fillColor=#E6E6E6;strokeColor=#4D4D4D;" vertex="1" parent="46">
                    <mxGeometry x="8.66720869239412" y="4.492825443787047" width="17.417837771203178" height="17.417837771203178" as="geometry"/>
                </mxCell>
                <mxCell id="48" value="4" style="text;html=1;strokeColor=none;fillColor=none;align=center;verticalAlign=middle;whiteSpace=wrap;rounded=0;" vertex="1" parent="46">
                    <mxGeometry y="-1" width="34.76" height="26.410000000000036" as="geometry"/>
                </mxCell>
                <mxCell id="49" value="" style="group" vertex="1" connectable="0" parent="1">
                    <mxGeometry x="967.8" y="3373" width="34.76" height="26.41" as="geometry"/>
                </mxCell>
                <mxCell id="50" value="" style="ellipse;whiteSpace=wrap;html=1;aspect=fixed;rounded=1;strokeWidth=1;fillColor=#E6E6E6;strokeColor=#4D4D4D;" vertex="1" parent="49">
                    <mxGeometry x="8.66720869239412" y="4.492825443787047" width="17.417837771203178" height="17.417837771203178" as="geometry"/>
                </mxCell>
                <mxCell id="51" value="5" style="text;html=1;strokeColor=none;fillColor=none;align=center;verticalAlign=middle;whiteSpace=wrap;rounded=0;" vertex="1" parent="49">
                    <mxGeometry y="-1" width="34.76" height="26.410000000000036" as="geometry"/>
                </mxCell>
                <mxCell id="65" value="" style="whiteSpace=wrap;html=1;strokeColor=#3CB2B6;fillColor=#dce7ef;rotation=0;rounded=1;arcSize=3;" vertex="1" parent="1">
                    <mxGeometry x="707.8000000000001" y="3870.8" width="330" height="270" as="geometry"/>
                </mxCell>
                <mxCell id="66" value="" style="rounded=1;whiteSpace=wrap;html=1;fillColor=#FFFFFF;strokeColor=none;arcSize=9;" vertex="1" parent="1">
                    <mxGeometry x="745.5999999999998" y="3897.3900000000003" width="259.6" height="90" as="geometry"/>
                </mxCell>
                <mxCell id="67" value="" style="ellipse;whiteSpace=wrap;html=1;aspect=fixed;fillColor=#64cee3;strokeColor=#3CB2B6;strokeWidth=2;" vertex="1" parent="1">
                    <mxGeometry x="872.1999999999997" y="3912.6000000000004" width="59.59" height="59.59" as="geometry"/>
                </mxCell>
                <mxCell id="68" value="" style="rounded=1;whiteSpace=wrap;html=1;fillColor=#FFFFFF;strokeColor=none;arcSize=9;" vertex="1" parent="1">
                    <mxGeometry x="745.5999999999998" y="4017.8" width="259.6" height="90" as="geometry"/>
                </mxCell>
                <mxCell id="69" value="" style="shape=flexArrow;endArrow=classic;html=1;strokeColor=#FFFFFF;fillColor=#cacacb;exitX=1.005;exitY=0.266;exitDx=0;exitDy=0;exitPerimeter=0;" edge="1" parent="1">
                    <mxGeometry width="50" height="50" relative="1" as="geometry">
                        <mxPoint x="859.8350000000008" y="3515.5739999999996" as="sourcePoint"/>
                        <mxPoint x="860" y="3860" as="targetPoint"/>
                    </mxGeometry>
                </mxCell>
                <mxCell id="70" value="" style="endArrow=classic;html=1;strokeWidth=3;strokeColor=#006682;" edge="1" parent="1">
                    <mxGeometry width="50" height="50" relative="1" as="geometry">
                        <mxPoint x="918.7999999999982" y="3947.7999999999993" as="sourcePoint"/>
                        <mxPoint x="888.7999999999992" y="3947.7999999999993" as="targetPoint"/>
                    </mxGeometry>
                </mxCell>
                <mxCell id="71" value="" style="endArrow=classic;html=1;strokeWidth=3;strokeColor=#006682;" edge="1" parent="1">
                    <mxGeometry width="50" height="50" relative="1" as="geometry">
                        <mxPoint x="888.7999999999992" y="3937.7999999999993" as="sourcePoint"/>
                        <mxPoint x="918.7999999999982" y="3937.7999999999993" as="targetPoint"/>
                    </mxGeometry>
                </mxCell>
                <mxCell id="72" value="" style="rounded=1;whiteSpace=wrap;html=1;strokeWidth=2;arcSize=15;strokeColor=#808080;fillColor=#66d5eb;" vertex="1" parent="1">
                    <mxGeometry x="827.8000000000001" y="4027.8" width="64" height="70" as="geometry"/>
                </mxCell>
                <mxCell id="73" value="" style="rounded=0;whiteSpace=wrap;html=1;strokeWidth=2;fillColor=#FFFFFF;strokeColor=none;" vertex="1" parent="1">
                    <mxGeometry x="834.8000000000001" y="4035.8" width="50" height="10" as="geometry"/>
                </mxCell>
                <mxCell id="74" value="" style="rounded=0;whiteSpace=wrap;html=1;strokeWidth=2;fillColor=#FFFFFF;strokeColor=none;" vertex="1" parent="1">
                    <mxGeometry x="834.8000000000001" y="4050.8" width="50" height="10" as="geometry"/>
                </mxCell>
                <mxCell id="75" value="" style="rounded=0;whiteSpace=wrap;html=1;strokeWidth=2;fillColor=#FFFFFF;strokeColor=none;" vertex="1" parent="1">
                    <mxGeometry x="834.8000000000001" y="4065.8" width="50" height="10" as="geometry"/>
                </mxCell>
                <mxCell id="76" value="" style="rounded=0;whiteSpace=wrap;html=1;strokeWidth=2;strokeColor=none;fillColor=#FFB500;" vertex="1" parent="1">
                    <mxGeometry x="834.8000000000001" y="4080.8" width="50" height="10" as="geometry"/>
                </mxCell>
                <mxCell id="77" value="" style="rounded=1;whiteSpace=wrap;html=1;strokeWidth=2;arcSize=14;strokeColor=#808080;fillColor=#66d5eb;" vertex="1" parent="1">
                    <mxGeometry x="911.8000000000001" y="4027.8" width="64" height="70" as="geometry"/>
                </mxCell>
                <mxCell id="78" value="" style="rounded=0;whiteSpace=wrap;html=1;strokeWidth=2;fillColor=#FFFFFF;strokeColor=none;" vertex="1" parent="1">
                    <mxGeometry x="918.8000000000001" y="4035.8" width="50" height="10" as="geometry"/>
                </mxCell>
                <mxCell id="79" value="" style="rounded=0;whiteSpace=wrap;html=1;strokeWidth=2;fillColor=#FFFFFF;strokeColor=none;" vertex="1" parent="1">
                    <mxGeometry x="918.8000000000001" y="4050.8" width="50" height="10" as="geometry"/>
                </mxCell>
                <mxCell id="80" value="" style="rounded=0;whiteSpace=wrap;html=1;strokeWidth=2;fillColor=#FFFFFF;strokeColor=none;" vertex="1" parent="1">
                    <mxGeometry x="918.8000000000001" y="4065.8" width="50" height="10" as="geometry"/>
                </mxCell>
                <mxCell id="81" value="" style="rounded=0;whiteSpace=wrap;html=1;strokeWidth=2;fillColor=#FFFFFF;strokeColor=none;" vertex="1" parent="1">
                    <mxGeometry x="918.8000000000001" y="4080.8" width="50" height="10" as="geometry"/>
                </mxCell>
                <mxCell id="82" value="" style="shape=flexArrow;endArrow=classic;html=1;strokeColor=#FFFFFF;fillColor=#cacacb;" edge="1" parent="1">
                    <mxGeometry width="50" height="50" relative="1" as="geometry">
                        <mxPoint x="856.8000000000001" y="4102.799999999999" as="sourcePoint"/>
                        <mxPoint x="856.84" y="4181" as="targetPoint"/>
                    </mxGeometry>
                </mxCell>
                <mxCell id="83" value="" style="shape=flexArrow;endArrow=classic;html=1;strokeColor=#FFFFFF;fillColor=#cacacb;" edge="1" parent="1">
                    <mxGeometry width="50" height="50" relative="1" as="geometry">
                        <mxPoint x="885.7999999999992" y="3973.7999999999993" as="sourcePoint"/>
                        <mxPoint x="855.7999999999992" y="4023.7999999999993" as="targetPoint"/>
                    </mxGeometry>
                </mxCell>
                <mxCell id="84" value="" style="shape=flexArrow;endArrow=classic;html=1;strokeColor=#FFFFFF;fillColor=#cacacb;exitX=0.683;exitY=0.831;exitDx=0;exitDy=0;exitPerimeter=0;" edge="1" parent="1">
                    <mxGeometry width="50" height="50" relative="1" as="geometry">
                        <mxPoint x="917.9068000000005" y="3975.1800000000003" as="sourcePoint"/>
                        <mxPoint x="945.7999999999992" y="4024.7999999999984" as="targetPoint"/>
                    </mxGeometry>
                </mxCell>
                <mxCell id="85" value="&lt;h6&gt;&lt;font color=&quot;#808080&quot;&gt;EXCHANGE&lt;/font&gt;&lt;/h6&gt;" style="text;html=1;strokeColor=none;fillColor=none;align=center;verticalAlign=middle;whiteSpace=wrap;rounded=0;opacity=50;" vertex="1" parent="1">
                    <mxGeometry x="743.8000000000001" y="3903.8" width="59" height="10" as="geometry"/>
                </mxCell>
                <mxCell id="86" value="&lt;h6&gt;&lt;font color=&quot;#808080&quot;&gt;QUEUES&lt;/font&gt;&lt;/h6&gt;" style="text;html=1;strokeColor=none;fillColor=none;align=center;verticalAlign=middle;whiteSpace=wrap;rounded=0;opacity=50;" vertex="1" parent="1">
                    <mxGeometry x="744.8000000000001" y="4025.8" width="43" height="10" as="geometry"/>
                </mxCell>
                <mxCell id="87" value="&lt;h6&gt;&lt;font color=&quot;#808080&quot;&gt;Binding&lt;/font&gt;&lt;/h6&gt;" style="text;html=1;strokeColor=none;fillColor=none;align=center;verticalAlign=middle;whiteSpace=wrap;rounded=0;opacity=50;" vertex="1" parent="1">
                    <mxGeometry x="882.8000000000001" y="3987.3900000000003" width="40" height="20" as="geometry"/>
                </mxCell>
                <mxCell id="89" value="" style="html=1;verticalLabelPosition=bottom;align=center;labelBackgroundColor=#ffffff;verticalAlign=top;strokeWidth=1;shadow=0;dashed=0;shape=mxgraph.ios7.icons.envelope_(message);rounded=1;fillColor=#FFD47B;strokeColor=#808080;" vertex="1" parent="1">
                    <mxGeometry x="787.8" y="3385.39" width="40.88" height="34" as="geometry"/>
                </mxCell>
                <mxCell id="90" value="" style="group" vertex="1" connectable="0" parent="1">
                    <mxGeometry x="717.8000000000001" y="4117.8" width="61.76" height="15" as="geometry"/>
                </mxCell>
                <mxCell id="91" value="" style="shape=image;verticalLabelPosition=bottom;labelBackgroundColor=#ffffff;verticalAlign=top;aspect=fixed;imageAspect=0;image=https://cdn.iconscout.com/icon/free/png-256/rabbitmq-282296.png;" vertex="1" parent="90">
                    <mxGeometry x="5.606465997770346" y="3" width="12.90969899665552" height="12.90969899665552" as="geometry"/>
                </mxCell>
                <mxCell id="92" value="&lt;font color=&quot;#333333&quot; style=&quot;font-size: 9px&quot;&gt;&lt;b&gt;RabbitMQ&lt;/b&gt;&lt;/font&gt;" style="text;html=1;strokeColor=none;fillColor=none;align=center;verticalAlign=middle;whiteSpace=wrap;rounded=0;" vertex="1" parent="90">
                    <mxGeometry x="18.727670011148266" y="2.3600000000001273" width="43.03232998885173" height="14.29" as="geometry"/>
                </mxCell>
                <mxCell id="93" value="&lt;h6&gt;BROKER&lt;/h6&gt;" style="text;html=1;strokeColor=none;fillColor=none;align=center;verticalAlign=middle;whiteSpace=wrap;rounded=0;opacity=50;" vertex="1" parent="1">
                    <mxGeometry x="715.8000000000001" y="3875.3900000000003" width="40" height="10" as="geometry"/>
                </mxCell>
                <mxCell id="94" value="&lt;div style=&quot;text-align: center&quot;&gt;&lt;span style=&quot;font-size: 8.04px&quot;&gt;&lt;font face=&quot;helvetica&quot;&gt;&lt;b&gt;PRODUCER&lt;/b&gt;&lt;/font&gt;&lt;/span&gt;&lt;/div&gt;" style="text;whiteSpace=wrap;html=1;" vertex="1" parent="1">
                    <mxGeometry x="707.8000000000001" y="3836.8" width="69" height="20" as="geometry"/>
                </mxCell>
                <mxCell id="95" value="&lt;div style=&quot;text-align: center&quot;&gt;&lt;span style=&quot;font-size: 8.04px&quot;&gt;&lt;font face=&quot;helvetica&quot;&gt;&lt;b&gt;CONSUMER&lt;/b&gt;&lt;/font&gt;&lt;/span&gt;&lt;/div&gt;" style="text;whiteSpace=wrap;html=1;" vertex="1" parent="1">
                    <mxGeometry x="707.8000000000001" y="4146.8" width="69" height="20" as="geometry"/>
                </mxCell>
                <mxCell id="96" value="" style="group" vertex="1" connectable="0" parent="1">
                    <mxGeometry x="970.8000000000001" y="3830" width="34.76" height="26.41" as="geometry"/>
                </mxCell>
                <mxCell id="97" value="" style="ellipse;whiteSpace=wrap;html=1;aspect=fixed;rounded=1;strokeWidth=1;fillColor=#E6E6E6;strokeColor=#4D4D4D;" vertex="1" parent="96">
                    <mxGeometry x="8.66720869239412" y="4.492825443787047" width="17.417837771203178" height="17.417837771203178" as="geometry"/>
                </mxCell>
                <mxCell id="98" value="1" style="text;html=1;strokeColor=none;fillColor=none;align=center;verticalAlign=middle;whiteSpace=wrap;rounded=0;" vertex="1" parent="96">
                    <mxGeometry width="34.76" height="26.410000000000036" as="geometry"/>
                </mxCell>
                <mxCell id="99" value="" style="group" vertex="1" connectable="0" parent="1">
                    <mxGeometry x="970.8000000000001" y="3928.8" width="34.76" height="26.41" as="geometry"/>
                </mxCell>
                <mxCell id="100" value="" style="ellipse;whiteSpace=wrap;html=1;aspect=fixed;rounded=1;strokeWidth=1;fillColor=#E6E6E6;strokeColor=#4D4D4D;" vertex="1" parent="99">
                    <mxGeometry x="8.66720869239412" y="4.492825443787047" width="17.417837771203178" height="17.417837771203178" as="geometry"/>
                </mxCell>
                <mxCell id="101" value="2" style="text;html=1;strokeColor=none;fillColor=none;align=center;verticalAlign=middle;whiteSpace=wrap;rounded=0;" vertex="1" parent="99">
                    <mxGeometry width="34.76" height="26.410000000000036" as="geometry"/>
                </mxCell>
                <mxCell id="102" value="" style="group" vertex="1" connectable="0" parent="1">
                    <mxGeometry x="970.8000000000001" y="3989.8" width="34.76" height="26.41" as="geometry"/>
                </mxCell>
                <mxCell id="103" value="" style="ellipse;whiteSpace=wrap;html=1;aspect=fixed;rounded=1;strokeWidth=1;fillColor=#E6E6E6;strokeColor=#4D4D4D;" vertex="1" parent="102">
                    <mxGeometry x="8.66720869239412" y="4.492825443787047" width="17.417837771203178" height="17.417837771203178" as="geometry"/>
                </mxCell>
                <mxCell id="104" value="3" style="text;html=1;strokeColor=none;fillColor=none;align=center;verticalAlign=middle;whiteSpace=wrap;rounded=0;" vertex="1" parent="102">
                    <mxGeometry width="34.76" height="26.410000000000036" as="geometry"/>
                </mxCell>
                <mxCell id="105" value="" style="group" vertex="1" connectable="0" parent="1">
                    <mxGeometry x="970.8000000000001" y="4058.8" width="34.76" height="26.41" as="geometry"/>
                </mxCell>
                <mxCell id="106" value="" style="ellipse;whiteSpace=wrap;html=1;aspect=fixed;rounded=1;strokeWidth=1;fillColor=#E6E6E6;strokeColor=#4D4D4D;" vertex="1" parent="105">
                    <mxGeometry x="8.66720869239412" y="4.492825443787047" width="17.417837771203178" height="17.417837771203178" as="geometry"/>
                </mxCell>
                <mxCell id="107" value="4" style="text;html=1;strokeColor=none;fillColor=none;align=center;verticalAlign=middle;whiteSpace=wrap;rounded=0;" vertex="1" parent="105">
                    <mxGeometry y="-1" width="34.76" height="26.410000000000036" as="geometry"/>
                </mxCell>
                <mxCell id="108" value="" style="group" vertex="1" connectable="0" parent="1">
                    <mxGeometry x="971.8000000000002" y="4140.8" width="34.76" height="26.41" as="geometry"/>
                </mxCell>
                <mxCell id="109" value="" style="ellipse;whiteSpace=wrap;html=1;aspect=fixed;rounded=1;strokeWidth=1;fillColor=#E6E6E6;strokeColor=#4D4D4D;" vertex="1" parent="108">
                    <mxGeometry x="8.66720869239412" y="4.492825443787047" width="17.417837771203178" height="17.417837771203178" as="geometry"/>
                </mxCell>
                <mxCell id="110" value="5" style="text;html=1;strokeColor=none;fillColor=none;align=center;verticalAlign=middle;whiteSpace=wrap;rounded=0;" vertex="1" parent="108">
                    <mxGeometry y="-1" width="34.76" height="26.410000000000036" as="geometry"/>
                </mxCell>
                <mxCell id="113" value="" style="group" vertex="1" connectable="0" parent="1">
                    <mxGeometry x="309.99692307692294" y="3151.8159259259255" width="85.99461538461547" height="147.96296296296293" as="geometry"/>
                </mxCell>
                <mxCell id="114" value="" style="group;rounded=1;strokeColor=#666;strokeWidth=3;fillColor=none;" vertex="1" connectable="0" parent="113">
                    <mxGeometry width="85.99461538461547" height="147.96296296296293" as="geometry"/>
                </mxCell>
                <mxCell id="115" value="" style="group" vertex="1" connectable="0" parent="114">
                    <mxGeometry x="1.1676923076924" y="30.750185185185195" width="84.82692307692308" height="104.44444444444444" as="geometry"/>
                </mxCell>
                <mxCell id="116" value="" style="outlineConnect=0;dashed=0;verticalLabelPosition=bottom;verticalAlign=top;align=center;html=1;shape=mxgraph.aws3.dynamo_db;fillColor=#2E73B8;gradientColor=none;rounded=0;" vertex="1" parent="115">
                    <mxGeometry x="43.32307692307696" y="48.74074074074074" width="28.583076923076923" height="33.074074074074076" as="geometry"/>
                </mxCell>
                <mxCell id="117" value="" style="dashed=0;outlineConnect=0;html=1;align=center;labelPosition=center;verticalLabelPosition=bottom;verticalAlign=top;shape=mxgraph.weblogos.mongodb;rounded=0;fillColor=none;" vertex="1" parent="115">
                    <mxGeometry y="26.98148148148148" width="34.861538461538466" height="75.02592592592593" as="geometry"/>
                </mxCell>
                <mxCell id="118" value="MongoDB" style="text;html=1;align=center;verticalAlign=middle;resizable=0;points=[];autosize=1;" vertex="1" parent="115">
                    <mxGeometry x="16.596153846153847" y="87.03703703703704" width="70" height="20" as="geometry"/>
                </mxCell>
                <mxCell id="119" value="Data Store" style="text;html=1;align=center;verticalAlign=middle;resizable=0;points=[];autosize=1;" vertex="1" parent="115">
                    <mxGeometry x="10.940769230769284" width="70" height="20" as="geometry"/>
                </mxCell>
                <mxCell id="121" value="" style="rounded=1;whiteSpace=wrap;html=1;shadow=0;glass=0;comic=0;strokeWidth=2;fillColor=none;arcSize=11;" vertex="1" parent="1">
                    <mxGeometry x="1406.94" y="3364" width="137.11" height="200" as="geometry"/>
                </mxCell>
                <mxCell id="122" value="&lt;span style=&quot;font-size: 15px&quot;&gt;Elastic&lt;br&gt;Search&lt;br&gt;Cluster&lt;br&gt;&lt;/span&gt;" style="text;html=1;strokeColor=none;fillColor=none;align=center;verticalAlign=middle;whiteSpace=wrap;rounded=0;shadow=0;glass=0;comic=0;" vertex="1" parent="1">
                    <mxGeometry x="1405.2999999999997" y="3477" width="79.5" height="76.77" as="geometry"/>
                </mxCell>
                <mxCell id="123" value="&lt;font style=&quot;font-size: 15px&quot;&gt;Search Service&lt;/font&gt;" style="text;html=1;strokeColor=none;fillColor=none;align=center;verticalAlign=middle;whiteSpace=wrap;rounded=0;shadow=0;glass=0;comic=0;" vertex="1" parent="1">
                    <mxGeometry x="1482.1499999999996" y="3365.8" width="54.75" height="95" as="geometry"/>
                </mxCell>
                <mxCell id="124" value="&lt;font style=&quot;font-size: 14px&quot;&gt;ELK&lt;br&gt;Stack&lt;/font&gt;" style="text;html=1;strokeColor=none;fillColor=none;align=center;verticalAlign=middle;whiteSpace=wrap;rounded=0;shadow=0;glass=0;comic=0;" vertex="1" parent="1">
                    <mxGeometry x="1473.02" y="3441" width="73" height="64" as="geometry"/>
                </mxCell>
                <mxCell id="125" value="" style="shape=image;verticalLabelPosition=bottom;labelBackgroundColor=#ffffff;verticalAlign=top;aspect=fixed;imageAspect=0;image=https://www.elastic.co/static-res/images/elastic-logo-200.png;" vertex="1" parent="1">
                    <mxGeometry x="1413.4299999999998" y="3403" width="67.25" height="67.25" as="geometry"/>
                </mxCell>
                <mxCell id="127" value="" style="shape=flexArrow;endArrow=classic;html=1;strokeColor=#FFFFFF;fillColor=#cacacb;" edge="1" parent="1">
                    <mxGeometry width="50" height="50" relative="1" as="geometry">
                        <mxPoint x="941.6399999999999" y="3465.7599999999993" as="sourcePoint"/>
                        <mxPoint x="1131.8400000000001" y="3466" as="targetPoint"/>
                    </mxGeometry>
                </mxCell>
                <mxCell id="141" value="" style="shape=flexArrow;endArrow=classic;html=1;strokeColor=#FFFFFF;fillColor=#cacacb;" edge="1" parent="1">
                    <mxGeometry width="50" height="50" relative="1" as="geometry">
                        <mxPoint x="-800" y="3213" as="sourcePoint"/>
                        <mxPoint x="-610" y="3213" as="targetPoint"/>
                    </mxGeometry>
                </mxCell>
                <mxCell id="142" value="" style="shape=flexArrow;endArrow=classic;html=1;strokeColor=#FFFFFF;fillColor=#cacacb;" edge="1" parent="1">
                    <mxGeometry width="50" height="50" relative="1" as="geometry">
                        <mxPoint x="-610" y="3246" as="sourcePoint"/>
                        <mxPoint x="-800" y="3246" as="targetPoint"/>
                    </mxGeometry>
                </mxCell>
                <mxCell id="143" value="" style="group" vertex="1" connectable="0" parent="1">
                    <mxGeometry x="-900" y="3150" width="90.79999999999995" height="149.89999999999964" as="geometry"/>
                </mxCell>
                <mxCell id="144" value="" style="shadow=0;dashed=0;html=1;strokeColor=none;fillColor=#4495D1;labelPosition=center;verticalLabelPosition=bottom;verticalAlign=top;align=center;outlineConnect=0;shape=mxgraph.veeam.one_client;rounded=0;" vertex="1" parent="143">
                    <mxGeometry y="88.29999999999973" width="90.8" height="61.6" as="geometry"/>
                </mxCell>
                <mxCell id="145" value="" style="points=[[0.015,0.015,0],[0.985,0.015,0],[0.985,0.985,0],[0.015,0.985,0],[0.25,0,0],[0.5,0,0],[0.75,0,0],[1,0.25,0],[1,0.5,0],[1,0.75,0],[0.75,1,0],[0.5,1,0],[0.25,1,0],[0,0.75,0],[0,0.5,0],[0,0.25,0]];verticalLabelPosition=bottom;html=1;verticalAlign=top;aspect=fixed;align=center;pointerEvents=1;shape=mxgraph.cisco19.cell_phone;fillColor=#005073;strokeColor=none;rounded=0;" vertex="1" parent="143">
                    <mxGeometry x="32.799999999999955" width="25" height="50" as="geometry"/>
                </mxCell>
                <mxCell id="146" value="&lt;font size=&quot;1&quot;&gt;&lt;b style=&quot;font-size: 20px&quot;&gt;Clients&lt;/b&gt;&lt;/font&gt;" style="text;html=1;strokeColor=none;fillColor=none;align=center;verticalAlign=middle;whiteSpace=wrap;rounded=0;" vertex="1" parent="143">
                    <mxGeometry x="9.399999999999977" y="48.29999999999973" width="70" height="48.7" as="geometry"/>
                </mxCell>
                <mxCell id="148" value="" style="shape=flexArrow;endArrow=classic;html=1;strokeColor=#FFFFFF;fillColor=#cacacb;" edge="1" parent="1">
                    <mxGeometry width="50" height="50" relative="1" as="geometry">
                        <mxPoint x="480" y="3209" as="sourcePoint"/>
                        <mxPoint x="590" y="3209" as="targetPoint"/>
                    </mxGeometry>
                </mxCell>
                <mxCell id="149" value="" style="group;rounded=1;arcSize=8;strokeColor=#000000;" vertex="1" connectable="0" parent="1">
                    <mxGeometry x="-81.56999999999971" y="4173" width="420" height="186.67" as="geometry"/>
                </mxCell>
                <mxCell id="150" value="" style="outlineConnect=0;dashed=0;verticalLabelPosition=bottom;verticalAlign=top;align=center;html=1;shape=mxgraph.aws3.android;fillColor=#8CC64F;gradientColor=none;rounded=0;" vertex="1" parent="149">
                    <mxGeometry x="98.66666666666667" y="18.666999999999998" width="68.6" height="78.4014" as="geometry"/>
                </mxCell>
                <mxCell id="151" value="&lt;font style=&quot;font-size: 15px&quot;&gt;Node.js&lt;br&gt;&lt;/font&gt;" style="text;html=1;strokeColor=none;fillColor=none;align=center;verticalAlign=middle;whiteSpace=wrap;rounded=0;" vertex="1" parent="149">
                    <mxGeometry x="114.30000000000001" y="109.20194999999998" width="37.333333333333336" height="18.666999999999998" as="geometry"/>
                </mxCell>
                <mxCell id="152" value="" style="html=1;dashed=0;whitespace=wrap;fillColor=#2875E2;strokeColor=#ffffff;points=[[0.005,0.63,0],[0.1,0.2,0],[0.9,0.2,0],[0.5,0,0],[0.995,0.63,0],[0.72,0.99,0],[0.5,1,0],[0.28,0.99,0]];shape=mxgraph.kubernetes.icon;prIcon=api;rounded=0;" vertex="1" parent="149">
                    <mxGeometry x="218.13333333333333" y="20.533699999999996" width="84" height="69.0679" as="geometry"/>
                </mxCell>
                <mxCell id="153" value="" style="rounded=0;whiteSpace=wrap;html=1;fillColor=none;dashed=1;" vertex="1" parent="149">
                    <mxGeometry x="40" y="14.8" width="340" height="130.67" as="geometry"/>
                </mxCell>
                <mxCell id="154" value="API&lt;br&gt;(REST/gRPC)" style="text;html=1;strokeColor=none;fillColor=none;align=center;verticalAlign=middle;whiteSpace=wrap;rounded=0;" vertex="1" parent="149">
                    <mxGeometry x="220.7" y="97.0684" width="78.86666666666667" height="24.2671" as="geometry"/>
                </mxCell>
                <mxCell id="155" value="&lt;span style=&quot;font-size: 15px&quot;&gt;&lt;b&gt;NOTIFICATION SERVICE&lt;/b&gt;&lt;/span&gt;" style="text;html=1;strokeColor=none;fillColor=none;align=center;verticalAlign=middle;whiteSpace=wrap;rounded=0;" vertex="1" parent="149">
                    <mxGeometry x="31.83" y="158.67" width="187.17" height="18.67" as="geometry"/>
                </mxCell>
                <mxCell id="158" value="" style="dashed=0;outlineConnect=0;html=1;align=center;labelPosition=center;verticalLabelPosition=bottom;verticalAlign=top;shape=mxgraph.weblogos.json_2;rounded=1;strokeColor=#000000;strokeWidth=2;fillColor=none;" vertex="1" parent="1">
                    <mxGeometry x="578.8" y="3160.9999999999995" width="66.4" height="20.81" as="geometry"/>
                </mxCell>
                <mxCell id="160" value="" style="dashed=0;outlineConnect=0;html=1;align=center;labelPosition=center;verticalLabelPosition=bottom;verticalAlign=top;shape=mxgraph.weblogos.json_2;rounded=1;strokeColor=#000000;strokeWidth=2;fillColor=none;" vertex="1" parent="1">
                    <mxGeometry x="994.8400000000001" y="3433.999999999999" width="66.4" height="20.81" as="geometry"/>
                </mxCell>
                <mxCell id="164" value="" style="group" vertex="1" connectable="0" parent="1">
                    <mxGeometry x="810.6399999999999" y="3434" width="111" height="60" as="geometry"/>
                </mxCell>
                <mxCell id="165" value="" style="rounded=1;whiteSpace=wrap;html=1;strokeColor=#808080;strokeWidth=1;fillColor=#DCE7EF;" vertex="1" parent="164">
                    <mxGeometry x="-70" width="181" height="60" as="geometry"/>
                </mxCell>
                <mxCell id="167" value="Orchestrator&lt;br&gt;Worker&lt;br&gt;Service" style="text;html=1;strokeColor=none;fillColor=none;align=center;verticalAlign=middle;whiteSpace=wrap;rounded=0;" vertex="1" parent="164">
                    <mxGeometry x="20" y="10" width="80.88" height="42" as="geometry"/>
                </mxCell>
                <mxCell id="174" value="" style="dashed=0;outlineConnect=0;html=1;align=center;labelPosition=center;verticalLabelPosition=bottom;verticalAlign=top;shape=mxgraph.weblogos.json_2;rounded=1;strokeColor=#000000;strokeWidth=2;fillColor=none;" vertex="1" parent="1">
                    <mxGeometry x="-702" y="3176.3599999999997" width="66.4" height="20.81" as="geometry"/>
                </mxCell>
                <mxCell id="175" value="&lt;b&gt;&lt;font style=&quot;font-size: 18px&quot;&gt;Orchestrator&lt;br&gt;service&lt;/font&gt;&lt;/b&gt;" style="text;html=1;strokeColor=none;fillColor=none;align=center;verticalAlign=middle;whiteSpace=wrap;rounded=0;" vertex="1" parent="1">
                    <mxGeometry x="-37.579999999999984" y="3100.71" width="134.13" height="74.12" as="geometry"/>
                </mxCell>
                <mxCell id="177" value="" style="dashed=0;outlineConnect=0;html=1;align=center;labelPosition=center;verticalLabelPosition=bottom;verticalAlign=top;shape=mxgraph.weblogos.json_2;rounded=1;strokeColor=#000000;strokeWidth=2;fillColor=none;" vertex="1" parent="1">
                    <mxGeometry x="-698.2" y="3268.7000000000003" width="66.4" height="20.81" as="geometry"/>
                </mxCell>
                <mxCell id="178" value="&lt;b&gt;&lt;font style=&quot;font-size: 20px&quot;&gt;Request&lt;/font&gt;&lt;/b&gt;" style="text;html=1;strokeColor=none;fillColor=none;align=center;verticalAlign=middle;whiteSpace=wrap;rounded=0;" vertex="1" parent="1">
                    <mxGeometry x="-802" y="3177.17" width="92" height="20" as="geometry"/>
                </mxCell>
                <mxCell id="179" value="&lt;b&gt;&lt;font style=&quot;font-size: 20px&quot;&gt;Response&lt;/font&gt;&lt;/b&gt;" style="text;html=1;strokeColor=none;fillColor=none;align=center;verticalAlign=middle;whiteSpace=wrap;rounded=0;" vertex="1" parent="1">
                    <mxGeometry x="-809.2" y="3268.7000000000003" width="120" height="20" as="geometry"/>
                </mxCell>
                <mxCell id="184" value="" style="dashed=0;outlineConnect=0;html=1;align=center;labelPosition=center;verticalLabelPosition=bottom;verticalAlign=top;shape=mxgraph.weblogos.json_2;rounded=1;strokeColor=#000000;strokeWidth=2;fillColor=none;" vertex="1" parent="1">
                    <mxGeometry x="884.8000000000002" y="3679.9899999999993" width="66.4" height="20.81" as="geometry"/>
                </mxCell>
                <mxCell id="185" value="" style="html=1;verticalLabelPosition=bottom;align=center;labelBackgroundColor=#ffffff;verticalAlign=top;strokeWidth=1;shadow=0;dashed=0;shape=mxgraph.ios7.icons.envelope_(message);rounded=1;fillColor=#FFD47B;strokeColor=#808080;" vertex="1" parent="1">
                    <mxGeometry x="742.8000000000001" y="4183" width="40.88" height="34" as="geometry"/>
                </mxCell>
                <mxCell id="186" value="" style="group" vertex="1" connectable="0" parent="1">
                    <mxGeometry x="813.8000000000001" y="4191" width="111" height="60" as="geometry"/>
                </mxCell>
                <mxCell id="187" value="" style="rounded=1;whiteSpace=wrap;html=1;strokeColor=#808080;strokeWidth=1;fillColor=#DCE7EF;" vertex="1" parent="186">
                    <mxGeometry width="111" height="60" as="geometry"/>
                </mxCell>
                <mxCell id="188" value="" style="outlineConnect=0;dashed=0;verticalLabelPosition=bottom;verticalAlign=top;align=center;html=1;shape=mxgraph.aws3.android;fillColor=#8CC64F;gradientColor=none;rounded=1;strokeColor=#808080;strokeWidth=1;" vertex="1" parent="186">
                    <mxGeometry x="8" y="6" width="38.5" height="44" as="geometry"/>
                </mxCell>
                <mxCell id="189" value="Worker&lt;br&gt;Service" style="text;html=1;strokeColor=none;fillColor=none;align=center;verticalAlign=middle;whiteSpace=wrap;rounded=0;" vertex="1" parent="186">
                    <mxGeometry x="60.88000000000011" y="32" width="40" height="20" as="geometry"/>
                </mxCell>
                <mxCell id="190" value="" style="dashed=0;outlineConnect=0;html=1;align=center;labelPosition=center;verticalLabelPosition=bottom;verticalAlign=top;shape=mxgraph.weblogos.json_2;rounded=1;strokeColor=#000000;strokeWidth=2;fillColor=none;" vertex="1" parent="1">
                    <mxGeometry x="729.3999999999995" y="4222.999999999999" width="66.4" height="20.81" as="geometry"/>
                </mxCell>
                <mxCell id="192" value="" style="shape=flexArrow;endArrow=classic;html=1;strokeColor=#FFFFFF;fillColor=#cacacb;" edge="1" parent="1">
                    <mxGeometry width="50" height="50" relative="1" as="geometry">
                        <mxPoint x="710" y="4211.81" as="sourcePoint"/>
                        <mxPoint x="350" y="4212" as="targetPoint"/>
                    </mxGeometry>
                </mxCell>
                <mxCell id="193" value="" style="dashed=0;outlineConnect=0;html=1;align=center;labelPosition=center;verticalLabelPosition=bottom;verticalAlign=top;shape=mxgraph.weblogos.json_2;rounded=1;strokeColor=#000000;strokeWidth=2;fillColor=none;" vertex="1" parent="1">
                    <mxGeometry x="968.8000000000001" y="4190.999999999999" width="66.4" height="20.81" as="geometry"/>
                </mxCell>
                <mxCell id="194" value="" style="outlineConnect=0;dashed=0;verticalLabelPosition=bottom;verticalAlign=top;align=center;html=1;shape=mxgraph.aws3.android;fillColor=#8CC64F;gradientColor=none;" vertex="1" parent="1">
                    <mxGeometry x="147.69" y="3245.19" width="23.5" height="26.86" as="geometry"/>
                </mxCell>
                <mxCell id="195" value="" style="html=1;dashed=0;whitespace=wrap;fillColor=#2875E2;strokeColor=#ffffff;points=[[0.005,0.63,0],[0.1,0.2,0],[0.9,0.2,0],[0.5,0,0],[0.995,0.63,0],[0.72,0.99,0],[0.5,1,0],[0.28,0.99,0]];shape=mxgraph.kubernetes.icon;prIcon=api" vertex="1" parent="1">
                    <mxGeometry x="186" y="3243.3500000000004" width="26.75" height="25.68" as="geometry"/>
                </mxCell>
                <mxCell id="196" value="" style="aspect=fixed;html=1;points=[];align=center;image;fontSize=12;image=img/lib/mscae/Cache_Redis_Product.svg;fillColor=none;" vertex="1" parent="1">
                    <mxGeometry x="-149" y="3174.83" width="50" height="42" as="geometry"/>
                </mxCell>
                <mxCell id="198" value="&lt;font style=&quot;font-size: 18px&quot;&gt;Redis Cluster&lt;/font&gt;" style="text;html=1;strokeColor=none;fillColor=none;align=center;verticalAlign=middle;whiteSpace=wrap;rounded=0;" vertex="1" parent="1">
                    <mxGeometry x="-140" y="3248.83" width="87.69" height="30" as="geometry"/>
                </mxCell>
                <mxCell id="200" value="" style="shape=flexArrow;endArrow=classic;html=1;strokeColor=#FFFFFF;fillColor=#cacacb;" edge="1" parent="1">
                    <mxGeometry width="50" height="50" relative="1" as="geometry">
                        <mxPoint x="-30" y="3214.8199999999997" as="sourcePoint"/>
                        <mxPoint x="40" y="3214.8199999999997" as="targetPoint"/>
                    </mxGeometry>
                </mxCell>
                <mxCell id="201" value="" style="shape=flexArrow;endArrow=classic;html=1;strokeColor=#FFFFFF;fillColor=#cacacb;" edge="1" parent="1">
                    <mxGeometry width="50" height="50" relative="1" as="geometry">
                        <mxPoint x="40" y="3240.83" as="sourcePoint"/>
                        <mxPoint x="-30" y="3240.83" as="targetPoint"/>
                    </mxGeometry>
                </mxCell>
                <mxCell id="202" value="&lt;font style=&quot;font-size: 20px&quot;&gt;If anything should go wrong at this point, the message is sent back into the queue for retry, if it still fails after n-number of retries, then the message is sent into the dead-letter queue for reprocessing.&lt;/font&gt;" style="text;html=1;strokeColor=none;fillColor=none;align=center;verticalAlign=middle;whiteSpace=wrap;rounded=0;" vertex="1" parent="1">
                    <mxGeometry x="1190" y="3151.82" width="320" height="190" as="geometry"/>
                </mxCell>
                <mxCell id="203" value="&lt;span style=&quot;font-size: 20px&quot;&gt;Here, we have a redis cluster that caches all checks/verification for n-times in hours/days.&lt;br&gt;&lt;br&gt;First we check the redis cache if the data we are looking for is there, if true, then we return it to the client immediately, else we go ahead to make the check/verification using the &lt;b&gt;third-party services&lt;/b&gt;&lt;br&gt;&lt;/span&gt;" style="text;html=1;strokeColor=none;fillColor=none;align=center;verticalAlign=middle;whiteSpace=wrap;rounded=0;" vertex="1" parent="1">
                    <mxGeometry x="-210" y="2750" width="264.94" height="309.2" as="geometry"/>
                </mxCell>
                <mxCell id="204" value="&lt;font style=&quot;font-size: 24px&quot;&gt;api&lt;/font&gt;" style="text;html=1;strokeColor=none;fillColor=none;align=center;verticalAlign=middle;whiteSpace=wrap;rounded=0;" vertex="1" parent="1">
                    <mxGeometry x="120.63" y="3197.17" width="69.37" height="33.66" as="geometry"/>
                </mxCell>
                <mxCell id="207" value="&lt;font style=&quot;font-size: 20px&quot;&gt;After the data indexing, we then forward a message containing the desired payload to the user, using the preferred notification medium.&lt;/font&gt;" style="text;html=1;strokeColor=none;fillColor=none;align=center;verticalAlign=middle;whiteSpace=wrap;rounded=0;" vertex="1" parent="1">
                    <mxGeometry x="-31.56999999999971" y="4030" width="320" height="126.25" as="geometry"/>
                </mxCell>
                <mxCell id="208" value="" style="shape=flexArrow;endArrow=classic;html=1;strokeColor=#FFFFFF;fillColor=#cacacb;" edge="1" parent="1">
                    <mxGeometry width="50" height="50" relative="1" as="geometry">
                        <mxPoint x="300" y="3243.83" as="sourcePoint"/>
                        <mxPoint x="230" y="3243.83" as="targetPoint"/>
                    </mxGeometry>
                </mxCell>
                <mxCell id="209" value="" style="shape=flexArrow;endArrow=classic;html=1;strokeColor=#FFFFFF;fillColor=#cacacb;" edge="1" parent="1">
                    <mxGeometry width="50" height="50" relative="1" as="geometry">
                        <mxPoint x="232" y="3217.33" as="sourcePoint"/>
                        <mxPoint x="302" y="3217.33" as="targetPoint"/>
                    </mxGeometry>
                </mxCell>
                <mxCell id="210" value="&lt;b&gt;MongoDB Transaction&lt;/b&gt;" style="text;html=1;strokeColor=none;fillColor=none;align=center;verticalAlign=middle;whiteSpace=wrap;rounded=0;" vertex="1" parent="1">
                    <mxGeometry x="273.4699999999998" y="3316.8" width="159.04" height="20" as="geometry"/>
                </mxCell>
                <mxCell id="211" value="&lt;b&gt;&lt;font style=&quot;font-size: 24px&quot;&gt;ElasticSearch Cluster&lt;/font&gt;&lt;/b&gt;" style="text;html=1;strokeColor=none;fillColor=none;align=center;verticalAlign=middle;whiteSpace=wrap;rounded=0;" vertex="1" parent="1">
                    <mxGeometry x="1180.84" y="3412" width="184" height="117" as="geometry"/>
                </mxCell>
                <mxCell id="214" value="" style="shape=flexArrow;endArrow=classic;html=1;strokeColor=#FFFFFF;fillColor=#cacacb;" edge="1" parent="1">
                    <mxGeometry width="50" height="50" relative="1" as="geometry">
                        <mxPoint x="-330" y="3295.29" as="sourcePoint"/>
                        <mxPoint x="-330" y="3476" as="targetPoint"/>
                    </mxGeometry>
                </mxCell>
                <mxCell id="215" value="&lt;font style=&quot;font-size: 24px&quot;&gt;Bulk&lt;/font&gt;" style="text;html=1;strokeColor=none;fillColor=none;align=center;verticalAlign=middle;whiteSpace=wrap;rounded=0;" vertex="1" parent="1">
                    <mxGeometry x="-390" y="3379.41" width="40" height="20" as="geometry"/>
                </mxCell>
                <mxCell id="217" value="" style="rounded=1;whiteSpace=wrap;html=1;strokeColor=#000000;strokeWidth=5;fillColor=none;" vertex="1" parent="1">
                    <mxGeometry x="-617" y="3507" width="477" height="270" as="geometry"/>
                </mxCell>
                <mxCell id="222" value="" style="rounded=1;whiteSpace=wrap;html=1;strokeColor=#3CB2B6;fillColor=#DCE7EF;" vertex="1" parent="1">
                    <mxGeometry x="-387" y="3645" width="177.31" height="100" as="geometry"/>
                </mxCell>
                <mxCell id="223" value="" style="html=1;dashed=0;whitespace=wrap;fillColor=#2875E2;strokeColor=#ffffff;points=[[0.005,0.63,0],[0.1,0.2,0],[0.9,0.2,0],[0.5,0,0],[0.995,0.63,0],[0.72,0.99,0],[0.5,1,0],[0.28,0.99,0]];shape=mxgraph.kubernetes.icon;prIcon=node" vertex="1" parent="1">
                    <mxGeometry x="-363.13" y="3661" width="50" height="48" as="geometry"/>
                </mxCell>
                <mxCell id="224" value="" style="outlineConnect=0;dashed=0;verticalLabelPosition=bottom;verticalAlign=top;align=center;html=1;shape=mxgraph.aws3.android;fillColor=#8CC64F;gradientColor=none;" vertex="1" parent="1">
                    <mxGeometry x="-292.31" y="3709.36" width="23.5" height="26.86" as="geometry"/>
                </mxCell>
                <mxCell id="225" value="" style="html=1;dashed=0;whitespace=wrap;fillColor=#2875E2;strokeColor=#ffffff;points=[[0.005,0.63,0],[0.1,0.2,0],[0.9,0.2,0],[0.5,0,0],[0.995,0.63,0],[0.72,0.99,0],[0.5,1,0],[0.28,0.99,0]];shape=mxgraph.kubernetes.icon;prIcon=api" vertex="1" parent="1">
                    <mxGeometry x="-251" y="3707.5200000000004" width="26.75" height="25.68" as="geometry"/>
                </mxCell>
                <mxCell id="226" value="&lt;font style=&quot;font-size: 24px&quot;&gt;svc&lt;/font&gt;" style="text;html=1;strokeColor=none;fillColor=none;align=center;verticalAlign=middle;whiteSpace=wrap;rounded=0;" vertex="1" parent="1">
                    <mxGeometry x="-292.37" y="3658.34" width="69.37" height="33.66" as="geometry"/>
                </mxCell>
                <mxCell id="227" value="" style="group" vertex="1" connectable="0" parent="1">
                    <mxGeometry x="-580" y="3539.2" width="118.99" height="215.8" as="geometry"/>
                </mxCell>
                <mxCell id="228" value="" style="group;rounded=1;strokeColor=#666;strokeWidth=3;fillColor=none;" vertex="1" connectable="0" parent="227">
                    <mxGeometry width="118.99" height="215.8" as="geometry"/>
                </mxCell>
                <mxCell id="229" value="" style="group" vertex="1" connectable="0" parent="228">
                    <mxGeometry x="1.615725671553801" y="44.84831764705885" width="117.3742743284462" height="152.32941176470592" as="geometry"/>
                </mxCell>
                <mxCell id="230" value="" style="outlineConnect=0;dashed=0;verticalLabelPosition=bottom;verticalAlign=top;align=center;html=1;shape=mxgraph.aws3.dynamo_db;fillColor=#2E73B8;gradientColor=none;rounded=0;" vertex="1" parent="229">
                    <mxGeometry x="59.94576404604937" y="71.08705882352943" width="39.55015448194426" height="48.23764705882355" as="geometry"/>
                </mxCell>
                <mxCell id="231" value="" style="dashed=0;outlineConnect=0;html=1;align=center;labelPosition=center;verticalLabelPosition=bottom;verticalAlign=top;shape=mxgraph.weblogos.mongodb;rounded=0;fillColor=none;" vertex="1" parent="229">
                    <mxGeometry y="39.35" width="48.24" height="109.42" as="geometry"/>
                </mxCell>
                <mxCell id="232" value="MongoDB" style="text;html=1;align=center;verticalAlign=middle;resizable=0;points=[];autosize=1;" vertex="1" parent="229">
                    <mxGeometry x="22.9639534675695" y="126.94117647058827" width="70" height="20" as="geometry"/>
                </mxCell>
                <mxCell id="233" value="Data Store" style="text;html=1;align=center;verticalAlign=middle;resizable=0;points=[];autosize=1;" vertex="1" parent="229">
                    <mxGeometry x="21.29383284491419" width="70" height="20" as="geometry"/>
                </mxCell>
                <mxCell id="234" value="" style="rounded=1;whiteSpace=wrap;html=1;strokeColor=#9999FF;strokeWidth=3;fillColor=none;" vertex="1" parent="1">
                    <mxGeometry x="-400.25" y="3535.6099999999997" width="204" height="63.59" as="geometry"/>
                </mxCell>
                <mxCell id="235" value="&lt;font style=&quot;font-size: 24px&quot;&gt;&lt;b&gt;Validator&lt;/b&gt;&lt;/font&gt;" style="text;html=1;strokeColor=none;fillColor=none;align=center;verticalAlign=middle;whiteSpace=wrap;rounded=0;" vertex="1" parent="1">
                    <mxGeometry x="-356.13" y="3550" width="120" height="36" as="geometry"/>
                </mxCell>
                <mxCell id="237" value="" style="whiteSpace=wrap;html=1;strokeColor=#3CB2B6;fillColor=#dce7ef;rotation=0;rounded=1;arcSize=3;" vertex="1" parent="1">
                    <mxGeometry x="-59.17999999999989" y="3545.8" width="330" height="270" as="geometry"/>
                </mxCell>
                <mxCell id="238" value="" style="rounded=1;whiteSpace=wrap;html=1;fillColor=#FFFFFF;strokeColor=none;arcSize=9;" vertex="1" parent="1">
                    <mxGeometry x="-21.380000000000166" y="3572.3900000000003" width="259.6" height="90" as="geometry"/>
                </mxCell>
                <mxCell id="239" value="" style="ellipse;whiteSpace=wrap;html=1;aspect=fixed;fillColor=#64cee3;strokeColor=#3CB2B6;strokeWidth=2;" vertex="1" parent="1">
                    <mxGeometry x="105.21999999999974" y="3587.6000000000004" width="59.59" height="59.59" as="geometry"/>
                </mxCell>
                <mxCell id="240" value="" style="rounded=1;whiteSpace=wrap;html=1;fillColor=#FFFFFF;strokeColor=none;arcSize=9;" vertex="1" parent="1">
                    <mxGeometry x="-21.380000000000166" y="3692.8000000000006" width="259.6" height="90" as="geometry"/>
                </mxCell>
                <mxCell id="241" value="" style="shape=flexArrow;endArrow=classic;html=1;strokeColor=#FFFFFF;fillColor=#cacacb;" edge="1" parent="1">
                    <mxGeometry width="50" height="50" relative="1" as="geometry">
                        <mxPoint x="-133" y="3680" as="sourcePoint"/>
                        <mxPoint x="-63" y="3680" as="targetPoint"/>
                    </mxGeometry>
                </mxCell>
                <mxCell id="242" value="" style="endArrow=classic;html=1;strokeWidth=3;strokeColor=#006682;" edge="1" parent="1">
                    <mxGeometry width="50" height="50" relative="1" as="geometry">
                        <mxPoint x="151.81999999999817" y="3622.7999999999993" as="sourcePoint"/>
                        <mxPoint x="121.81999999999908" y="3622.7999999999993" as="targetPoint"/>
                    </mxGeometry>
                </mxCell>
                <mxCell id="243" value="" style="endArrow=classic;html=1;strokeWidth=3;strokeColor=#006682;" edge="1" parent="1">
                    <mxGeometry width="50" height="50" relative="1" as="geometry">
                        <mxPoint x="121.81999999999908" y="3612.7999999999993" as="sourcePoint"/>
                        <mxPoint x="151.81999999999817" y="3612.7999999999993" as="targetPoint"/>
                    </mxGeometry>
                </mxCell>
                <mxCell id="244" value="" style="rounded=1;whiteSpace=wrap;html=1;strokeWidth=2;arcSize=15;strokeColor=#808080;fillColor=#66d5eb;" vertex="1" parent="1">
                    <mxGeometry x="60.82000000000011" y="3702.8000000000006" width="64" height="70" as="geometry"/>
                </mxCell>
                <mxCell id="245" value="" style="rounded=0;whiteSpace=wrap;html=1;strokeWidth=2;fillColor=#FFFFFF;strokeColor=none;" vertex="1" parent="1">
                    <mxGeometry x="67.8200000000001" y="3710.8000000000006" width="50" height="10" as="geometry"/>
                </mxCell>
                <mxCell id="246" value="" style="rounded=0;whiteSpace=wrap;html=1;strokeWidth=2;fillColor=#FFFFFF;strokeColor=none;" vertex="1" parent="1">
                    <mxGeometry x="67.8200000000001" y="3725.8000000000006" width="50" height="10" as="geometry"/>
                </mxCell>
                <mxCell id="247" value="" style="rounded=0;whiteSpace=wrap;html=1;strokeWidth=2;fillColor=#FFFFFF;strokeColor=none;" vertex="1" parent="1">
                    <mxGeometry x="67.8200000000001" y="3740.8000000000006" width="50" height="10" as="geometry"/>
                </mxCell>
                <mxCell id="248" value="" style="rounded=0;whiteSpace=wrap;html=1;strokeWidth=2;strokeColor=none;fillColor=#FFB500;" vertex="1" parent="1">
                    <mxGeometry x="67.8200000000001" y="3755.8000000000006" width="50" height="10" as="geometry"/>
                </mxCell>
                <mxCell id="249" value="" style="rounded=1;whiteSpace=wrap;html=1;strokeWidth=2;arcSize=14;strokeColor=#808080;fillColor=#66d5eb;" vertex="1" parent="1">
                    <mxGeometry x="144.8200000000001" y="3702.8000000000006" width="64" height="70" as="geometry"/>
                </mxCell>
                <mxCell id="250" value="" style="rounded=0;whiteSpace=wrap;html=1;strokeWidth=2;fillColor=#FFFFFF;strokeColor=none;" vertex="1" parent="1">
                    <mxGeometry x="151.8200000000001" y="3710.8000000000006" width="50" height="10" as="geometry"/>
                </mxCell>
                <mxCell id="251" value="" style="rounded=0;whiteSpace=wrap;html=1;strokeWidth=2;fillColor=#FFFFFF;strokeColor=none;" vertex="1" parent="1">
                    <mxGeometry x="151.8200000000001" y="3725.8000000000006" width="50" height="10" as="geometry"/>
                </mxCell>
                <mxCell id="252" value="" style="rounded=0;whiteSpace=wrap;html=1;strokeWidth=2;fillColor=#FFFFFF;strokeColor=none;" vertex="1" parent="1">
                    <mxGeometry x="151.8200000000001" y="3740.8000000000006" width="50" height="10" as="geometry"/>
                </mxCell>
                <mxCell id="253" value="" style="rounded=0;whiteSpace=wrap;html=1;strokeWidth=2;fillColor=#FFFFFF;strokeColor=none;" vertex="1" parent="1">
                    <mxGeometry x="151.8200000000001" y="3755.8000000000006" width="50" height="10" as="geometry"/>
                </mxCell>
                <mxCell id="254" value="" style="shape=flexArrow;endArrow=classic;html=1;strokeColor=#FFFFFF;fillColor=#cacacb;exitX=0.966;exitY=0.386;exitDx=0;exitDy=0;exitPerimeter=0;" edge="1" parent="1" source="277">
                    <mxGeometry width="50" height="50" relative="1" as="geometry">
                        <mxPoint x="310" y="3705.39" as="sourcePoint"/>
                        <mxPoint x="310" y="3743" as="targetPoint"/>
                    </mxGeometry>
                </mxCell>
                <mxCell id="255" value="" style="shape=flexArrow;endArrow=classic;html=1;strokeColor=#FFFFFF;fillColor=#cacacb;" edge="1" parent="1">
                    <mxGeometry width="50" height="50" relative="1" as="geometry">
                        <mxPoint x="118.81999999999908" y="3648.7999999999997" as="sourcePoint"/>
                        <mxPoint x="88.81999999999908" y="3698.7999999999997" as="targetPoint"/>
                    </mxGeometry>
                </mxCell>
                <mxCell id="256" value="" style="shape=flexArrow;endArrow=classic;html=1;strokeColor=#FFFFFF;fillColor=#cacacb;exitX=0.683;exitY=0.831;exitDx=0;exitDy=0;exitPerimeter=0;" edge="1" parent="1">
                    <mxGeometry width="50" height="50" relative="1" as="geometry">
                        <mxPoint x="150.92680000000047" y="3650.1800000000007" as="sourcePoint"/>
                        <mxPoint x="178.81999999999908" y="3699.799999999999" as="targetPoint"/>
                    </mxGeometry>
                </mxCell>
                <mxCell id="257" value="&lt;h6&gt;&lt;font color=&quot;#808080&quot;&gt;EXCHANGE&lt;/font&gt;&lt;/h6&gt;" style="text;html=1;strokeColor=none;fillColor=none;align=center;verticalAlign=middle;whiteSpace=wrap;rounded=0;opacity=50;" vertex="1" parent="1">
                    <mxGeometry x="-23.179999999999893" y="3578.8" width="59" height="10" as="geometry"/>
                </mxCell>
                <mxCell id="258" value="&lt;h6&gt;&lt;font color=&quot;#808080&quot;&gt;QUEUES&lt;/font&gt;&lt;/h6&gt;" style="text;html=1;strokeColor=none;fillColor=none;align=center;verticalAlign=middle;whiteSpace=wrap;rounded=0;opacity=50;" vertex="1" parent="1">
                    <mxGeometry x="-22.179999999999893" y="3700.8000000000006" width="43" height="10" as="geometry"/>
                </mxCell>
                <mxCell id="259" value="&lt;h6&gt;&lt;font color=&quot;#808080&quot;&gt;Binding&lt;/font&gt;&lt;/h6&gt;" style="text;html=1;strokeColor=none;fillColor=none;align=center;verticalAlign=middle;whiteSpace=wrap;rounded=0;opacity=50;" vertex="1" parent="1">
                    <mxGeometry x="115.8200000000001" y="3662.390000000001" width="40" height="20" as="geometry"/>
                </mxCell>
                <mxCell id="260" value="" style="group" vertex="1" connectable="0" parent="1">
                    <mxGeometry x="-49.17999999999989" y="3792.8000000000006" width="61.76" height="15" as="geometry"/>
                </mxCell>
                <mxCell id="261" value="" style="shape=image;verticalLabelPosition=bottom;labelBackgroundColor=#ffffff;verticalAlign=top;aspect=fixed;imageAspect=0;image=https://cdn.iconscout.com/icon/free/png-256/rabbitmq-282296.png;" vertex="1" parent="260">
                    <mxGeometry x="5.606465997770346" y="3" width="12.90969899665552" height="12.90969899665552" as="geometry"/>
                </mxCell>
                <mxCell id="262" value="&lt;font color=&quot;#333333&quot; style=&quot;font-size: 9px&quot;&gt;&lt;b&gt;RabbitMQ&lt;/b&gt;&lt;/font&gt;" style="text;html=1;strokeColor=none;fillColor=none;align=center;verticalAlign=middle;whiteSpace=wrap;rounded=0;" vertex="1" parent="260">
                    <mxGeometry x="18.727670011148266" y="2.3600000000001273" width="43.03232998885173" height="14.29" as="geometry"/>
                </mxCell>
                <mxCell id="263" value="&lt;h6&gt;BROKER&lt;/h6&gt;" style="text;html=1;strokeColor=none;fillColor=none;align=center;verticalAlign=middle;whiteSpace=wrap;rounded=0;opacity=50;" vertex="1" parent="1">
                    <mxGeometry x="-51.17999999999989" y="3550.3900000000003" width="40" height="10" as="geometry"/>
                </mxCell>
                <mxCell id="264" value="&lt;div style=&quot;text-align: center&quot;&gt;&lt;span style=&quot;font-size: 8.04px&quot;&gt;&lt;font face=&quot;helvetica&quot;&gt;&lt;b&gt;PRODUCER&lt;/b&gt;&lt;/font&gt;&lt;/span&gt;&lt;/div&gt;" style="text;whiteSpace=wrap;html=1;" vertex="1" parent="1">
                    <mxGeometry x="-59.17999999999989" y="3511.8" width="69" height="20" as="geometry"/>
                </mxCell>
                <mxCell id="265" value="&lt;div style=&quot;text-align: center&quot;&gt;&lt;span style=&quot;font-size: 8.04px&quot;&gt;&lt;font face=&quot;helvetica&quot;&gt;&lt;b&gt;CONSUMER&lt;/b&gt;&lt;/font&gt;&lt;/span&gt;&lt;/div&gt;" style="text;whiteSpace=wrap;html=1;" vertex="1" parent="1">
                    <mxGeometry x="-59.17999999999989" y="3821.8000000000006" width="69" height="20" as="geometry"/>
                </mxCell>
                <mxCell id="266" value="" style="group" vertex="1" connectable="0" parent="1">
                    <mxGeometry x="203.82" y="3505" width="34.76" height="26.41" as="geometry"/>
                </mxCell>
                <mxCell id="267" value="" style="ellipse;whiteSpace=wrap;html=1;aspect=fixed;rounded=1;strokeWidth=1;fillColor=#E6E6E6;strokeColor=#4D4D4D;" vertex="1" parent="266">
                    <mxGeometry x="8.66720869239412" y="4.492825443787047" width="17.417837771203178" height="17.417837771203178" as="geometry"/>
                </mxCell>
                <mxCell id="268" value="1" style="text;html=1;strokeColor=none;fillColor=none;align=center;verticalAlign=middle;whiteSpace=wrap;rounded=0;" vertex="1" parent="266">
                    <mxGeometry width="34.76" height="26.410000000000036" as="geometry"/>
                </mxCell>
                <mxCell id="269" value="" style="group" vertex="1" connectable="0" parent="1">
                    <mxGeometry x="203.82" y="3603.8" width="34.76" height="26.41" as="geometry"/>
                </mxCell>
                <mxCell id="270" value="" style="ellipse;whiteSpace=wrap;html=1;aspect=fixed;rounded=1;strokeWidth=1;fillColor=#E6E6E6;strokeColor=#4D4D4D;" vertex="1" parent="269">
                    <mxGeometry x="8.66720869239412" y="4.492825443787047" width="17.417837771203178" height="17.417837771203178" as="geometry"/>
                </mxCell>
                <mxCell id="271" value="2" style="text;html=1;strokeColor=none;fillColor=none;align=center;verticalAlign=middle;whiteSpace=wrap;rounded=0;" vertex="1" parent="269">
                    <mxGeometry width="34.76" height="26.410000000000036" as="geometry"/>
                </mxCell>
                <mxCell id="272" value="" style="group" vertex="1" connectable="0" parent="1">
                    <mxGeometry x="203.82" y="3664.8000000000006" width="34.76" height="26.41" as="geometry"/>
                </mxCell>
                <mxCell id="273" value="" style="ellipse;whiteSpace=wrap;html=1;aspect=fixed;rounded=1;strokeWidth=1;fillColor=#E6E6E6;strokeColor=#4D4D4D;" vertex="1" parent="272">
                    <mxGeometry x="8.66720869239412" y="4.492825443787047" width="17.417837771203178" height="17.417837771203178" as="geometry"/>
                </mxCell>
                <mxCell id="274" value="3" style="text;html=1;strokeColor=none;fillColor=none;align=center;verticalAlign=middle;whiteSpace=wrap;rounded=0;" vertex="1" parent="272">
                    <mxGeometry width="34.76" height="26.410000000000036" as="geometry"/>
                </mxCell>
                <mxCell id="275" value="" style="group" vertex="1" connectable="0" parent="1">
                    <mxGeometry x="203.82" y="3733.8000000000006" width="34.76" height="26.41" as="geometry"/>
                </mxCell>
                <mxCell id="276" value="" style="ellipse;whiteSpace=wrap;html=1;aspect=fixed;rounded=1;strokeWidth=1;fillColor=#E6E6E6;strokeColor=#4D4D4D;" vertex="1" parent="275">
                    <mxGeometry x="8.66720869239412" y="4.492825443787047" width="17.417837771203178" height="17.417837771203178" as="geometry"/>
                </mxCell>
                <mxCell id="277" value="4" style="text;html=1;strokeColor=none;fillColor=none;align=center;verticalAlign=middle;whiteSpace=wrap;rounded=0;" vertex="1" parent="275">
                    <mxGeometry y="-1" width="34.76" height="26.410000000000036" as="geometry"/>
                </mxCell>
                <mxCell id="278" value="" style="group" vertex="1" connectable="0" parent="1">
                    <mxGeometry x="204.82000000000022" y="3815.8000000000006" width="34.76" height="26.41" as="geometry"/>
                </mxCell>
                <mxCell id="279" value="" style="ellipse;whiteSpace=wrap;html=1;aspect=fixed;rounded=1;strokeWidth=1;fillColor=#E6E6E6;strokeColor=#4D4D4D;" vertex="1" parent="278">
                    <mxGeometry x="8.66720869239412" y="4.492825443787047" width="17.417837771203178" height="17.417837771203178" as="geometry"/>
                </mxCell>
                <mxCell id="280" value="5" style="text;html=1;strokeColor=none;fillColor=none;align=center;verticalAlign=middle;whiteSpace=wrap;rounded=0;" vertex="1" parent="278">
                    <mxGeometry y="-1" width="34.76" height="26.410000000000036" as="geometry"/>
                </mxCell>
                <mxCell id="281" value="" style="dashed=0;outlineConnect=0;html=1;align=center;labelPosition=center;verticalLabelPosition=bottom;verticalAlign=top;shape=mxgraph.weblogos.json_2;rounded=1;strokeColor=#000000;strokeWidth=2;fillColor=none;" vertex="1" parent="1">
                    <mxGeometry x="-136.45" y="3658.34" width="37.45" height="12.13" as="geometry"/>
                </mxCell>
                <mxCell id="282" value="" style="html=1;verticalLabelPosition=bottom;align=center;labelBackgroundColor=#ffffff;verticalAlign=top;strokeWidth=1;shadow=0;dashed=0;shape=mxgraph.ios7.icons.envelope_(message);rounded=1;fillColor=#FFD47B;strokeColor=#808080;" vertex="1" parent="1">
                    <mxGeometry x="286.8700000000001" y="3460.8000000000006" width="40.88" height="34" as="geometry"/>
                </mxCell>
                <mxCell id="283" value="" style="group" vertex="1" connectable="0" parent="1">
                    <mxGeometry x="320.0000000000001" y="3710.0000000000005" width="119" height="66" as="geometry"/>
                </mxCell>
                <mxCell id="284" value="" style="rounded=1;whiteSpace=wrap;html=1;strokeColor=#808080;strokeWidth=1;fillColor=#DCE7EF;" vertex="1" parent="283">
                    <mxGeometry width="111" height="60" as="geometry"/>
                </mxCell>
                <mxCell id="285" value="" style="outlineConnect=0;dashed=0;verticalLabelPosition=bottom;verticalAlign=top;align=center;html=1;shape=mxgraph.aws3.android;fillColor=#8CC64F;gradientColor=none;rounded=1;strokeColor=#808080;strokeWidth=1;" vertex="1" parent="283">
                    <mxGeometry x="8" y="6" width="38.5" height="44" as="geometry"/>
                </mxCell>
                <mxCell id="286" value="Worker&lt;br&gt;Service" style="text;html=1;strokeColor=none;fillColor=none;align=center;verticalAlign=middle;whiteSpace=wrap;rounded=0;" vertex="1" parent="283">
                    <mxGeometry x="60.88000000000011" y="32" width="40" height="20" as="geometry"/>
                </mxCell>
                <mxCell id="303" value="" style="rounded=1;whiteSpace=wrap;html=1;strokeColor=#808080;strokeWidth=1;fillColor=#DCE7EF;" vertex="1" parent="283">
                    <mxGeometry x="8" y="6" width="111" height="60" as="geometry"/>
                </mxCell>
                <mxCell id="287" value="" style="dashed=0;outlineConnect=0;html=1;align=center;labelPosition=center;verticalLabelPosition=bottom;verticalAlign=top;shape=mxgraph.weblogos.json_2;rounded=1;strokeColor=#000000;strokeWidth=2;fillColor=none;" vertex="1" parent="1">
                    <mxGeometry x="273.47" y="3502.8" width="66.4" height="18.81" as="geometry"/>
                </mxCell>
                <mxCell id="288" value="" style="shape=flexArrow;endArrow=classic;html=1;strokeColor=#FFFFFF;fillColor=#cacacb;" edge="1" parent="1">
                    <mxGeometry width="50" height="50" relative="1" as="geometry">
                        <mxPoint x="350.18" y="3686.39" as="sourcePoint"/>
                        <mxPoint x="350" y="3380" as="targetPoint"/>
                    </mxGeometry>
                </mxCell>
                <mxCell id="289" value="" style="dashed=0;outlineConnect=0;html=1;align=center;labelPosition=center;verticalLabelPosition=bottom;verticalAlign=top;shape=mxgraph.weblogos.json_2;rounded=1;strokeColor=#000000;strokeWidth=2;fillColor=none;" vertex="1" parent="1">
                    <mxGeometry x="480" y="4170.19" width="66.4" height="20.81" as="geometry"/>
                </mxCell>
                <mxCell id="290" value="&lt;font style=&quot;font-size: 12px&quot; color=&quot;#b3b3b3&quot;&gt;&lt;b&gt;[ ]&lt;/b&gt;&lt;/font&gt;" style="text;html=1;strokeColor=none;fillColor=none;align=center;verticalAlign=middle;whiteSpace=wrap;rounded=0;" vertex="1" parent="1">
                    <mxGeometry x="-104" y="3651.8" width="26.16" height="20" as="geometry"/>
                </mxCell>
                <mxCell id="292" value="" style="shape=flexArrow;endArrow=classic;html=1;strokeColor=#FFFFFF;fillColor=#cacacb;" edge="1" parent="1">
                    <mxGeometry width="50" height="50" relative="1" as="geometry">
                        <mxPoint x="380" y="3400" as="sourcePoint"/>
                        <mxPoint x="380.18" y="3701.61" as="targetPoint"/>
                    </mxGeometry>
                </mxCell>
                <mxCell id="294" value="" style="edgeStyle=segmentEdgeStyle;endArrow=classic;html=1;strokeWidth=8;strokeColor=#CACACB;" edge="1" parent="1">
                    <mxGeometry width="50" height="50" relative="1" as="geometry">
                        <mxPoint x="-330" y="3800" as="sourcePoint"/>
                        <mxPoint x="-90" y="4220" as="targetPoint"/>
                        <Array as="points">
                            <mxPoint x="-330" y="4220"/>
                            <mxPoint x="-90" y="4220"/>
                        </Array>
                    </mxGeometry>
                </mxCell>
                <mxCell id="295" value="" style="endArrow=classic;html=1;strokeColor=#CACACB;strokeWidth=8;" edge="1" parent="1">
                    <mxGeometry width="50" height="50" relative="1" as="geometry">
                        <mxPoint x="460" y="3780" as="sourcePoint"/>
                        <mxPoint x="680" y="3860" as="targetPoint"/>
                    </mxGeometry>
                </mxCell>
                <mxCell id="296" value="&lt;span style=&quot;font-size: 20px&quot;&gt;Here, we check if the message is a single or bulk check and which channel to send the message, if it's single then send out a generated report as a slack message with the message data else generate a report using each data in the bulk array block, zip all the generated reports and then send out a notification using the zip file.&lt;br&gt;&lt;/span&gt;" style="text;html=1;strokeColor=none;fillColor=none;align=center;verticalAlign=middle;whiteSpace=wrap;rounded=0;" vertex="1" parent="1">
                    <mxGeometry x="646.1999999999999" y="4260" width="427.2" height="240" as="geometry"/>
                </mxCell>
                <mxCell id="297" value="" style="dashed=0;outlineConnect=0;html=1;align=center;labelPosition=center;verticalLabelPosition=bottom;verticalAlign=top;shape=mxgraph.weblogos.json_2;rounded=1;strokeColor=#000000;strokeWidth=2;fillColor=none;" vertex="1" parent="1">
                    <mxGeometry x="533.8400000000003" y="3765.189999999999" width="66.4" height="20.81" as="geometry"/>
                </mxCell>
                <mxCell id="298" value="&lt;font style=&quot;font-size: 24px&quot; color=&quot;#b3b3b3&quot;&gt;&lt;b&gt;[ ]&lt;/b&gt;&lt;/font&gt;" style="text;html=1;strokeColor=none;fillColor=none;align=center;verticalAlign=middle;whiteSpace=wrap;rounded=0;" vertex="1" parent="1">
                    <mxGeometry x="603.84" y="3763.8" width="26.16" height="20" as="geometry"/>
                </mxCell>
                <mxCell id="299" value="&lt;font style=&quot;font-size: 20px&quot;&gt;All bad enteries will take this route&lt;/font&gt;" style="text;html=1;strokeColor=none;fillColor=none;align=center;verticalAlign=middle;whiteSpace=wrap;rounded=0;" vertex="1" parent="1">
                    <mxGeometry x="-462" y="3971.55" width="113" height="126.25" as="geometry"/>
                </mxCell>
                <mxCell id="300" value="" style="dashed=0;outlineConnect=0;html=1;align=center;labelPosition=center;verticalLabelPosition=bottom;verticalAlign=top;shape=mxgraph.weblogos.json_2;rounded=1;strokeColor=#000000;strokeWidth=2;fillColor=none;" vertex="1" parent="1">
                    <mxGeometry x="-313.1299999999998" y="4012.989999999999" width="66.4" height="20.81" as="geometry"/>
                </mxCell>
                <mxCell id="301" value="&lt;font style=&quot;font-size: 18px&quot; color=&quot;#b3b3b3&quot;&gt;&lt;b&gt;[ ]&lt;/b&gt;&lt;/font&gt;" style="text;html=1;strokeColor=none;fillColor=none;align=center;verticalAlign=middle;whiteSpace=wrap;rounded=0;" vertex="1" parent="1">
                    <mxGeometry x="-244.13" y="4007.39" width="24.21" height="30" as="geometry"/>
                </mxCell>
                <mxCell id="302" value="" style="group" vertex="1" connectable="0" parent="1">
                    <mxGeometry x="330.0000000000001" y="3720.0000000000005" width="119" height="66" as="geometry"/>
                </mxCell>
                <mxCell id="304" value="" style="outlineConnect=0;dashed=0;verticalLabelPosition=bottom;verticalAlign=top;align=center;html=1;shape=mxgraph.aws3.android;fillColor=#8CC64F;gradientColor=none;rounded=1;strokeColor=#808080;strokeWidth=1;" vertex="1" parent="302">
                    <mxGeometry x="8" y="6" width="38.5" height="44" as="geometry"/>
                </mxCell>
                <mxCell id="305" value="Worker&lt;br&gt;Service" style="text;html=1;strokeColor=none;fillColor=none;align=center;verticalAlign=middle;whiteSpace=wrap;rounded=0;" vertex="1" parent="302">
                    <mxGeometry x="60.88000000000011" y="32" width="40" height="20" as="geometry"/>
                </mxCell>
                <mxCell id="306" value="" style="group" vertex="1" connectable="0" parent="302">
                    <mxGeometry x="8" y="6" width="111" height="60" as="geometry"/>
                </mxCell>
                <mxCell id="307" value="" style="rounded=1;whiteSpace=wrap;html=1;strokeColor=#808080;strokeWidth=1;fillColor=#DCE7EF;" vertex="1" parent="306">
                    <mxGeometry width="111" height="60" as="geometry"/>
                </mxCell>
                <mxCell id="308" value="" style="outlineConnect=0;dashed=0;verticalLabelPosition=bottom;verticalAlign=top;align=center;html=1;shape=mxgraph.aws3.android;fillColor=#8CC64F;gradientColor=none;rounded=1;strokeColor=#808080;strokeWidth=1;" vertex="1" parent="306">
                    <mxGeometry x="8" y="6" width="38.5" height="44" as="geometry"/>
                </mxCell>
                <mxCell id="309" value="Worker&lt;br&gt;Service" style="text;html=1;strokeColor=none;fillColor=none;align=center;verticalAlign=middle;whiteSpace=wrap;rounded=0;" vertex="1" parent="306">
                    <mxGeometry x="60.88000000000011" y="32" width="40" height="20" as="geometry"/>
                </mxCell>
                <mxCell id="310" value="&lt;span style=&quot;font-size: 20px&quot;&gt;This will get the results of all the succesful verifications&lt;/span&gt;" style="text;html=1;strokeColor=none;fillColor=none;align=center;verticalAlign=middle;whiteSpace=wrap;rounded=0;" vertex="1" parent="1">
                    <mxGeometry x="395.99" y="3488" width="134.01" height="136" as="geometry"/>
                </mxCell>
                <mxCell id="312" value="&lt;span style=&quot;font-size: 20px&quot;&gt;This validate the CSV file, reach each row and validate all the fields.&lt;br&gt;For all potientially correct data we pass it on to the queue for further process else send back the data fields as an email or slcak message etc to the requester for corrections.&amp;nbsp;&lt;br&gt;&lt;/span&gt;" style="text;html=1;strokeColor=none;fillColor=none;align=center;verticalAlign=middle;whiteSpace=wrap;rounded=0;" vertex="1" parent="1">
                    <mxGeometry x="-920" y="3502.8" width="247.2" height="285.8" as="geometry"/>
                </mxCell>
                <mxCell id="166" value="" style="outlineConnect=0;dashed=0;verticalLabelPosition=bottom;verticalAlign=top;align=center;html=1;shape=mxgraph.aws3.android;fillColor=#8CC64F;gradientColor=none;rounded=1;strokeColor=#808080;strokeWidth=1;" vertex="1" parent="1">
                    <mxGeometry x="762.9999999999999" y="3438" width="38.5" height="44" as="geometry"/>
                </mxCell>
                <mxCell id="313" value="&amp;lt;&amp;lt; NotifyBusinessEvent &amp;gt;&amp;gt;" style="text;html=1;strokeColor=none;fillColor=none;align=center;verticalAlign=middle;whiteSpace=wrap;rounded=0;" vertex="1" parent="1">
                    <mxGeometry x="870.12" y="3626.1" width="169.88" height="42" as="geometry"/>
                </mxCell>
                <mxCell id="314" value="&amp;lt;&amp;lt; SyncDataEvent &amp;gt;&amp;gt;&lt;br&gt;Create or Update" style="text;html=1;strokeColor=none;fillColor=none;align=center;verticalAlign=middle;whiteSpace=wrap;rounded=0;" vertex="1" parent="1">
                    <mxGeometry x="950" y="3465" width="127.28" height="42" as="geometry"/>
                </mxCell>
                <mxCell id="316" value="" style="group;rounded=1;arcSize=8;strokeColor=#000000;" vertex="1" connectable="0" parent="1">
                    <mxGeometry x="60" y="2780" width="400" height="186.67" as="geometry"/>
                </mxCell>
                <mxCell id="317" value="" style="outlineConnect=0;dashed=0;verticalLabelPosition=bottom;verticalAlign=top;align=center;html=1;shape=mxgraph.aws3.android;fillColor=#8CC64F;gradientColor=none;rounded=0;" vertex="1" parent="316">
                    <mxGeometry x="39.111111111111114" y="18.666999999999998" width="65.33333333333333" height="78.4014" as="geometry"/>
                </mxCell>
                <mxCell id="318" value="&lt;font style=&quot;font-size: 15px&quot;&gt;Node.js&lt;br&gt;&lt;/font&gt;" style="text;html=1;strokeColor=none;fillColor=none;align=center;verticalAlign=middle;whiteSpace=wrap;rounded=0;" vertex="1" parent="316">
                    <mxGeometry x="54" y="109.20194999999998" width="35.55555555555556" height="18.666999999999998" as="geometry"/>
                </mxCell>
                <mxCell id="319" value="" style="outlineConnect=0;dashed=0;verticalLabelPosition=bottom;verticalAlign=top;align=center;html=1;shape=mxgraph.aws3.dynamo_db;fillColor=#2E73B8;gradientColor=none;rounded=0;" vertex="1" parent="316">
                    <mxGeometry x="343.99999999999994" y="120.40214999999999" width="30.026666666666667" height="35.467299999999994" as="geometry"/>
                </mxCell>
                <mxCell id="320" value="" style="dashed=0;outlineConnect=0;html=1;align=center;labelPosition=center;verticalLabelPosition=bottom;verticalAlign=top;shape=mxgraph.weblogos.mongodb;rounded=0;fillColor=none;" vertex="1" parent="316">
                    <mxGeometry x="307.37777777777774" y="93.335" width="36.62222222222222" height="80.45477" as="geometry"/>
                </mxCell>
                <mxCell id="321" value="MongoDB" style="text;html=1;strokeColor=none;fillColor=none;align=center;verticalAlign=middle;whiteSpace=wrap;rounded=0;" vertex="1" parent="316">
                    <mxGeometry x="343.99999999999983" y="158.66949999999997" width="35.55555555555556" height="18.666999999999998" as="geometry"/>
                </mxCell>
                <mxCell id="322" value="" style="html=1;dashed=0;whitespace=wrap;fillColor=#2875E2;strokeColor=#ffffff;points=[[0.005,0.63,0],[0.1,0.2,0],[0.9,0.2,0],[0.5,0,0],[0.995,0.63,0],[0.72,0.99,0],[0.5,1,0],[0.28,0.99,0]];shape=mxgraph.kubernetes.icon;prIcon=api;rounded=0;" vertex="1" parent="316">
                    <mxGeometry x="152.88888888888889" y="20.533699999999996" width="80" height="69.0679" as="geometry"/>
                </mxCell>
                <mxCell id="323" value="" style="rounded=0;whiteSpace=wrap;html=1;fillColor=none;dashed=1;" vertex="1" parent="316">
                    <mxGeometry x="21.333333333333332" y="16.8003" width="264" height="130.66899999999998" as="geometry"/>
                </mxCell>
                <mxCell id="324" value="" style="rounded=0;whiteSpace=wrap;html=1;fillColor=none;dashed=1;" vertex="1" parent="316">
                    <mxGeometry x="302.0444444444444" y="16.8003" width="89.06666666666668" height="158.66949999999997" as="geometry"/>
                </mxCell>
                <mxCell id="325" value="API&lt;br&gt;(REST/gRPC)" style="text;html=1;strokeColor=none;fillColor=none;align=center;verticalAlign=middle;whiteSpace=wrap;rounded=0;" vertex="1" parent="316">
                    <mxGeometry x="155.33333333333331" y="97.0684" width="75.11111111111111" height="24.2671" as="geometry"/>
                </mxCell>
                <mxCell id="326" value="Data Store" style="text;html=1;strokeColor=none;fillColor=none;align=center;verticalAlign=middle;whiteSpace=wrap;rounded=0;" vertex="1" parent="316">
                    <mxGeometry x="304.71111111111105" y="65.33449999999999" width="88.88888888888889" height="18.666999999999998" as="geometry"/>
                </mxCell>
                <mxCell id="327" value="&lt;span style=&quot;font-size: 15px&quot;&gt;&lt;b&gt;THIRD-PARTY SERVICE&lt;/b&gt;&lt;/span&gt;" style="text;html=1;strokeColor=none;fillColor=none;align=center;verticalAlign=middle;whiteSpace=wrap;rounded=0;" vertex="1" parent="316">
                    <mxGeometry x="13" y="158.67" width="184" height="18.67" as="geometry"/>
                </mxCell>
                <mxCell id="328" value="" style="shape=flexArrow;endArrow=classic;html=1;strokeColor=#FFFFFF;fillColor=#cacacb;" edge="1" parent="1">
                    <mxGeometry width="50" height="50" relative="1" as="geometry">
                        <mxPoint x="191.4900000000003" y="3060.7799999999997" as="sourcePoint"/>
                        <mxPoint x="191" y="2980" as="targetPoint"/>
                    </mxGeometry>
                </mxCell>
                <mxCell id="329" value="" style="shape=flexArrow;endArrow=classic;html=1;strokeColor=#FFFFFF;fillColor=#cacacb;" edge="1" parent="1">
                    <mxGeometry width="50" height="50" relative="1" as="geometry">
                        <mxPoint x="221" y="2980" as="sourcePoint"/>
                        <mxPoint x="221" y="3060" as="targetPoint"/>
                    </mxGeometry>
                </mxCell>
                <mxCell id="330" value="&lt;span&gt;&lt;b&gt;Third-Party&lt;br&gt;Services&lt;/b&gt;&lt;br&gt;e.g bvn service, pvc service, nin service etc&lt;br&gt;&lt;/span&gt;" style="text;html=1;strokeColor=none;fillColor=none;align=center;verticalAlign=middle;whiteSpace=wrap;rounded=0;" vertex="1" parent="1">
                    <mxGeometry x="242.58" y="2980" width="120.42" height="70" as="geometry"/>
                </mxCell>
                <mxCell id="331" value="" style="shape=flexArrow;endArrow=classic;html=1;strokeColor=#FFFFFF;fillColor=#cacacb;" edge="1" parent="1">
                    <mxGeometry width="50" height="50" relative="1" as="geometry">
                        <mxPoint x="-400" y="3216" as="sourcePoint"/>
                        <mxPoint x="-199.93" y="3215.57" as="targetPoint"/>
                    </mxGeometry>
                </mxCell>
                <mxCell id="332" value="" style="shape=flexArrow;endArrow=classic;html=1;strokeColor=#FFFFFF;fillColor=#cacacb;" edge="1" parent="1">
                    <mxGeometry width="50" height="50" relative="1" as="geometry">
                        <mxPoint x="-199.93" y="3248.57" as="sourcePoint"/>
                        <mxPoint x="-400" y="3249" as="targetPoint"/>
                    </mxGeometry>
                </mxCell>
                <mxCell id="333" value="" style="rounded=1;whiteSpace=wrap;html=1;strokeWidth=3;strokeColor=#6666FF;fillColor=#CCFFFF;" vertex="1" parent="1">
                    <mxGeometry x="-575.6" y="3194.7" width="120" height="60" as="geometry"/>
                </mxCell>
                <mxCell id="334" value="" style="rounded=1;whiteSpace=wrap;html=1;strokeWidth=3;strokeColor=#6666FF;fillColor=#CCFFFF;" vertex="1" parent="1">
                    <mxGeometry x="-563.8000000000001" y="3205.7" width="120" height="60" as="geometry"/>
                </mxCell>
                <mxCell id="335" value="" style="rounded=1;whiteSpace=wrap;html=1;strokeWidth=3;strokeColor=#6666FF;fillColor=#E6E6E6;" vertex="1" parent="1">
                    <mxGeometry x="-553.8000000000001" y="3215.7" width="120" height="60" as="geometry"/>
                </mxCell>
                <mxCell id="340" value="" style="html=1;dashed=0;whitespace=wrap;fillColor=#2875E2;strokeColor=#ffffff;points=[[0.005,0.63,0],[0.1,0.2,0],[0.9,0.2,0],[0.5,0,0],[0.995,0.63,0],[0.72,0.99,0],[0.5,1,0],[0.28,0.99,0]];shape=mxgraph.kubernetes.icon;prIcon=node" vertex="1" parent="1">
                    <mxGeometry x="-549.6" y="3221.7" width="50" height="48" as="geometry"/>
                </mxCell>
                <mxCell id="341" value="" style="fontColor=#0066CC;verticalAlign=top;verticalLabelPosition=bottom;labelPosition=center;align=center;html=1;outlineConnect=0;fillColor=#CCCCCC;strokeColor=#6881B3;gradientColor=none;gradientDirection=north;strokeWidth=2;shape=mxgraph.networks.unsecure;rounded=1;" vertex="1" parent="1">
                    <mxGeometry x="-473.6" y="3221.2" width="20" height="25" as="geometry"/>
                </mxCell>
                <mxCell id="342" value="&lt;font color=&quot;#333333&quot; style=&quot;font-size: 10px&quot;&gt;Auth Service, Billing Service&lt;/font&gt;" style="text;html=1;strokeColor=none;fillColor=none;align=center;verticalAlign=middle;whiteSpace=wrap;rounded=0;" vertex="1" parent="1">
                    <mxGeometry x="-505.6" y="3250" width="72.6" height="19.7" as="geometry"/>
                </mxCell>
                <mxCell id="343" value="&lt;font style=&quot;font-size: 18px&quot;&gt;middlewares&lt;/font&gt;" style="text;html=1;strokeColor=none;fillColor=none;align=center;verticalAlign=middle;whiteSpace=wrap;rounded=0;" vertex="1" parent="1">
                    <mxGeometry x="-569.1" y="3288" width="140.6" height="20" as="geometry"/>
                </mxCell>
                <mxCell id="344" value="&lt;font style=&quot;font-size: 20px&quot;&gt;All checks that went through without any errors&lt;/font&gt;" style="text;html=1;strokeColor=none;fillColor=none;align=center;verticalAlign=middle;whiteSpace=wrap;rounded=0;" vertex="1" parent="1">
                    <mxGeometry x="500" y="3233.1099999999997" width="185.6" height="84.3" as="geometry"/>
                </mxCell>
            </root>
        </mxGraphModel>
    </diagram>
</mxfile>